<svg width="34" height="34" viewBox="0 0 34 34" fill="none" xmlns="http://www.w3.org/2000/svg">
<path fill-rule="evenodd" clip-rule="evenodd" d="M30.84 16.99C30.84 9.27001 24.56 2.99001 16.84 2.99001C9.11997 2.99001 2.83997 9.27001 2.83997 16.99C2.83997 24.71 9.11997 30.99 16.84 30.99C24.56 30.99 30.84 24.71 30.84 16.99ZM0.839966 16.99C0.839966 8.15001 7.99997 0.990005 16.84 0.990005C25.68 0.990005 32.84 8.15001 32.84 16.99C32.84 25.83 25.68 32.99 16.84 32.99C7.99997 32.99 0.839966 25.83 0.839966 16.99ZM20.92 16.19L20.12 15.39L18.53 13.79L17.68 12.94V14.15V23.77V24.47C17.65 24.475 17.62 24.4775 17.59 24.48C17.56 24.4825 17.53 24.485 17.5 24.49C17.23 24.52 16.97 24.53 16.7 24.53C16.29 24.53 15.99 24.46 15.87 24.33C15.73 24.18 15.67 24 15.67 23.77V14.15V12.94L14.82 13.79L13.23 15.38L11.76 16.85C11.72 16.82 11.67 16.78 11.62 16.74C11.42 16.58 11.22 16.4 11.03 16.21C10.74 15.92 10.58 15.65 10.59 15.48C10.6 15.27 10.68 15.1 10.84 14.94L11.01 14.77L11.81 13.97L15.96 9.82C16.15 9.63 16.4 9.53 16.67 9.53C16.94 9.53 17.19 9.63 17.38 9.82L22.33 14.77L23 15.44C22.97 15.48 22.93 15.53 22.89 15.58C22.73 15.78 22.55 15.98 22.36 16.17C21.97 16.55 21.74 16.61 21.63 16.61C21.42 16.6 21.25 16.52 21.09 16.36L20.92 16.19Z" fill="#333333"/>
</svg>
