<svg width="34" height="34" viewBox="0 0 34 34" fill="none" xmlns="http://www.w3.org/2000/svg">
<path d="M15.87 25.93C15.92 25.94 15.98 25.94 16.05 25.95C16.31 25.98 16.58 25.99 16.85 25.99C17.26 25.99 17.56 25.92 17.68 25.79C17.82 25.64 17.88 25.46 17.88 25.23V18.49V17.99H18.38H25.82C25.83 17.94 25.83 17.88 25.84 17.81C25.87 17.55 25.88 17.28 25.88 17.01C25.88 16.6 25.81 16.3 25.68 16.18C25.53 16.04 25.35 15.98 25.12 15.98H18.38H17.88V15.48V8.05C17.83 8.04 17.77 8.04 17.7 8.03C17.43 8 17.16 7.99 16.9 7.99C16.49 7.99 16.19 8.06 16.07 8.19C15.93 8.34 15.87 8.52 15.87 8.75V15.49V15.99H15.37H7.93C7.92 16.04 7.92 16.1 7.91 16.17C7.89 16.43 7.87 16.7 7.87 16.96C7.87 17.37 7.93999 17.67 8.06999 17.79C8.21999 17.93 8.4 17.99 8.63 17.99H15.37H15.87V18.49V25.93V25.93Z" fill="#333333"/>
</svg>
