<svg width="23" height="13" viewBox="0 0 23 13" fill="none" xmlns="http://www.w3.org/2000/svg">
<g clip-path="url(#clip0_6_1481)">
<path d="M0.000442199 1.4C0.0104422 1.6 0.0904422 1.76 0.250442 1.93L0.440442 2.12L10.5004 12.18C10.6904 12.37 10.9404 12.47 11.2104 12.47C11.4804 12.47 11.7304 12.37 11.9204 12.18L22.0604 2.04L22.1804 1.91C22.3404 1.75 22.4204 1.58 22.4304 1.38C22.4404 1.21 22.2804 0.940001 21.9904 0.650001C21.8004 0.460001 21.6004 0.280001 21.4004 0.110001C21.3504 0.0700006 21.3004 0.03 21.2604 0L20.7604 0.5L11.5704 9.69L11.2004 10.06L10.8504 9.71L1.65044 0.51L1.17044 0.0300007C1.13044 0.0600007 1.08044 0.1 1.03044 0.14C0.830442 0.31 0.630442 0.49 0.440442 0.68C0.150442 0.96 -0.0095578 1.22 0.000442199 1.4Z" fill="#333333"/>
</g>
<defs>
<clipPath id="clip0_6_1481">
<rect width="22.4309" height="12.47" fill="white"/>
</clipPath>
</defs>
</svg>
