<svg width="34" height="34" viewBox="0 0 34 34" fill="none" xmlns="http://www.w3.org/2000/svg">
<path fill-rule="evenodd" clip-rule="evenodd" d="M30.84 16.99C30.84 9.27001 24.56 2.99001 16.84 2.99001C9.11997 2.99001 2.83997 9.27001 2.83997 16.99C2.83997 24.71 9.11997 30.99 16.84 30.99C24.56 30.99 30.84 24.71 30.84 16.99ZM0.839966 16.99C0.839966 8.15001 7.99997 0.990005 16.84 0.990005C25.68 0.990005 32.84 8.15001 32.84 16.99C32.84 25.83 25.68 32.99 16.84 32.99C7.99997 32.99 0.839966 25.83 0.839966 16.99ZM24.0001 17C24.0001 13.14 20.8601 10 17.0001 10C13.1401 10 10.0001 13.14 10.0001 17C10.0001 20.86 13.1401 24 17.0001 24C20.8601 24 24.0001 20.86 24.0001 17ZM9.00012 17C9.00012 12.58 12.5801 9.00002 17.0001 9.00002C21.4201 9.00002 25.0001 12.58 25.0001 17C25.0001 21.42 21.4201 25 17.0001 25C12.5801 25 9.00012 21.42 9.00012 17Z" fill="#333333"/>
</svg>
