<svg width="34" height="34" viewBox="0 0 34 34" fill="none" xmlns="http://www.w3.org/2000/svg">
<g clip-path="url(#clip0_434_1797)">
<path fill-rule="evenodd" clip-rule="evenodd" d="M0.839966 16.99C0.839966 8.15001 7.99997 0.990005 16.84 0.990005C25.68 0.990005 32.84 8.15001 32.84 16.99C32.84 25.83 25.68 32.99 16.84 32.99C7.99997 32.99 0.839966 25.83 0.839966 16.99ZM16.84 7.15001C16.37 7.15001 15.96 7.32001 15.62 7.66001C15.28 8.00001 15.11 8.42001 15.11 8.91001C15.11 9.38001 15.28 9.79001 15.62 10.13C15.96 10.47 16.37 10.64 16.84 10.64C17.33 10.64 17.75 10.47 18.09 10.13C18.43 9.79001 18.6 9.38001 18.6 8.91001C18.6 8.42001 18.43 8.00001 18.09 7.66001C17.75 7.32001 17.33 7.15001 16.84 7.15001ZM16.84 13.36C16.37 13.36 16.05 13.45 15.9 13.61C15.74 13.79 15.66 14 15.66 14.29V26.51C15.6974 26.5142 15.7383 26.52 15.7812 26.5262C15.8415 26.5349 15.9057 26.5442 15.97 26.55C16.24 26.58 16.51 26.59 16.78 26.59C17.39 26.59 17.65 26.46 17.75 26.34C17.91 26.16 17.99 25.95 17.99 25.66V13.44C17.9526 13.4358 17.9117 13.43 17.8689 13.4238L17.8687 13.4238C17.8085 13.4151 17.7442 13.4058 17.68 13.4C17.41 13.37 17.12 13.36 16.84 13.36Z" fill="#333333"/>
</g>
<defs>
<clipPath id="clip0_434_1797">
<rect width="34" height="34" fill="white"/>
</clipPath>
</defs>
</svg>
