<svg width="34" height="34" viewBox="0 0 34 34" fill="none" xmlns="http://www.w3.org/2000/svg">
<path d="M30.54 5H3.51C2.68 5 2 5.68 2 6.51V23.52C2 24.35 2.68 25.03 3.51 25.03H16.03V27.52H9.85V27.53C9.63 27.54 9.45 27.61 9.3 27.75C9.13 27.89 9.05 28.16 9.05 28.54C9.05 28.73 9.06 28.92 9.08 29.1C9.1 29.28 9.12 29.42 9.14 29.52H9.84H9.89H24.16H24.19H24.91C24.93 29.42 24.95 29.28 24.97 29.1C24.99 28.92 25 28.73 25 28.54C25 28.16 24.92 27.89 24.76 27.75C24.61 27.61 24.41 27.54 24.19 27.53H18.03V25.04H30.54C31.37 25.04 32.05 24.36 32.05 23.53V6.51C32.05 5.67 31.37 5 30.54 5ZM30.05 23.03H4V7H30.05V23.03Z" fill="#333333"/>
</svg>
