<svg width="34" height="34" viewBox="0 0 34 34" fill="none" xmlns="http://www.w3.org/2000/svg">
<path fill-rule="evenodd" clip-rule="evenodd" d="M14.6658 7.98843C14.6658 7.70858 14.4375 7.47291 14.1503 7.47291V7.48027H7.84622C7.56636 7.48027 7.3307 7.70858 7.3307 7.99579V14.2851C7.3307 14.5723 7.559 14.8006 7.84622 14.8006H14.1503C14.4301 14.8006 14.6658 14.5723 14.6658 14.2851V7.98843ZM7.84622 6H14.1503C15.2476 6 16.1387 6.89848 16.1313 7.99579V14.2851C16.1313 15.3824 15.2402 16.2735 14.1429 16.2735H7.84622C6.7489 16.2735 5.85779 15.3824 5.85779 14.2851V7.98843C5.85779 6.89111 6.7489 6 7.84622 6ZM14.6658 19.7275C14.6658 19.4477 14.4375 19.212 14.1503 19.212H7.84622C7.56636 19.212 7.3307 19.4403 7.3307 19.7275V26.0316C7.3307 26.3188 7.559 26.5471 7.84622 26.5471H14.1503C14.4301 26.5471 14.6658 26.3188 14.6658 26.0316V19.7275ZM7.84622 17.7391H14.1503C15.2476 17.7391 16.1387 18.6302 16.1313 19.7275V26.0316C16.1313 27.1289 15.2402 28.02 14.1429 28.02H7.84622C6.7489 28.02 5.85779 27.1289 5.85779 26.0316V19.7275C5.85779 18.6302 6.7489 17.7391 7.84622 17.7391ZM25.9336 7.47291C26.2208 7.47291 26.4491 7.70858 26.4491 7.98843V14.2851C26.4491 14.5723 26.2134 14.8006 25.9336 14.8006H19.6369C19.3497 14.8006 19.1213 14.5723 19.1213 14.2851V7.99579C19.1213 7.70858 19.357 7.48027 19.6369 7.48027H25.9336V7.47291ZM25.9336 6H19.6369C18.5395 6 17.6484 6.89111 17.6484 7.98843V14.2851C17.6484 15.3824 18.5395 16.2735 19.6369 16.2735H25.9336C27.0309 16.2735 27.922 15.3824 27.922 14.2851V7.99579C27.922 6.89848 27.0309 6 25.9336 6ZM26.4491 19.7275C26.4491 19.4477 26.2208 19.212 25.9336 19.212H19.6369C19.357 19.212 19.1213 19.4403 19.1213 19.7275V26.0316C19.1213 26.3188 19.3497 26.5471 19.6369 26.5471H25.9336C26.2134 26.5471 26.4491 26.3188 26.4491 26.0316V19.7275ZM19.6369 17.7391H25.9336C27.0309 17.7391 27.922 18.6302 27.922 19.7275V26.0316C27.922 27.1289 27.0309 28.02 25.9336 28.02H19.6369C18.5395 28.02 17.6484 27.1289 17.6484 26.0316V19.7275C17.6484 18.6302 18.5395 17.7391 19.6369 17.7391Z" fill="#333333"/>
</svg>
