<svg width="34" height="34" viewBox="0 0 34 34" fill="none" xmlns="http://www.w3.org/2000/svg">
<g clip-path="url(#clip0_6_1485)">
<path d="M5.26997 18.25C5.27997 18.45 5.35997 18.61 5.51997 18.78L5.70997 18.97L12.36 25.62C12.55 25.81 12.8 25.91 13.07 25.91C13.34 25.91 13.59 25.81 13.78 25.62L27.85 11.55L27.98 11.42C28.14 11.26 28.22 11.09 28.23 10.89C28.24 10.72 28.08 10.45 27.79 10.16C27.6 9.97 27.4 9.79 27.2 9.62C27.15 9.58 27.1 9.54 27.06 9.51L26.56 10.01L13.41 23.14L13.06 23.49L12.71 23.14L6.92997 17.36L6.44997 16.88C6.39997 16.9 6.34997 16.94 6.29997 16.98C6.09997 17.15 5.89997 17.33 5.70997 17.52C5.41997 17.81 5.25997 18.07 5.26997 18.25Z" fill="#333333"/>
</g>
<defs>
<clipPath id="clip0_6_1485">
<rect width="34" height="34" fill="white"/>
</clipPath>
</defs>
</svg>
