<svg width="14" height="8" viewBox="0 0 14 8" fill="none" xmlns="http://www.w3.org/2000/svg">
<path d="M13.7178 7.04692C13.7119 6.92927 13.6649 6.83516 13.5707 6.73516L13.459 6.62339L7.54132 0.705744C7.42956 0.59398 7.2825 0.535156 7.12367 0.535156C6.96485 0.535156 6.81779 0.59398 6.70603 0.705744L0.747204 6.66457L0.676616 6.74104C0.576616 6.83516 0.535439 6.93516 0.529557 7.0528C0.523675 7.1528 0.617792 7.31163 0.788381 7.47633C0.900145 7.5881 1.01779 7.69398 1.13544 7.79398C1.16485 7.81751 1.19426 7.84104 1.21779 7.85869L1.51191 7.56457L6.91779 2.15869L7.12367 1.9528L7.32956 2.15869L12.7413 7.57045L13.0237 7.8528C13.0472 7.83516 13.0766 7.81163 13.106 7.7881C13.2237 7.6881 13.3413 7.58221 13.4531 7.47045C13.6237 7.30574 13.7178 7.14692 13.7178 7.04692Z" fill="#333333"/>
</svg>
