<svg width="34" height="34" viewBox="0 0 34 34" fill="none" xmlns="http://www.w3.org/2000/svg">
<g clip-path="url(#clip0_6_1614)">
<path fill-rule="evenodd" clip-rule="evenodd" d="M33.56 28.72L19 2.57C18.51 1.72 17.84 1.25 17.13 1.25C16.42 1.25 15.75 1.72 15.26 2.57L0.439965 28.72C-0.0500348 29.57 -0.130035 30.38 0.229965 31C0.589965 31.62 1.32997 31.96 2.31997 31.96H31.7C32.69 31.96 33.43 31.62 33.79 31C34.13 30.38 34.06 29.57 33.56 28.72ZM31.69 29.95H2.30997C2.20997 29.95 2.12997 29.94 2.05997 29.93C2.07851 29.8744 2.11426 29.8101 2.15924 29.7293L2.15925 29.7293L2.16997 29.71L16.98 3.57C17.03 3.48 17.08 3.41 17.12 3.36C17.16 3.41 17.21 3.48 17.26 3.57L31.83 29.72C31.8644 29.7819 31.8893 29.8344 31.9113 29.8806L31.9113 29.8807C31.9213 29.9016 31.9306 29.9213 31.94 29.94C31.87 29.95 31.79 29.95 31.69 29.95ZM16.2 20.26C16.48 20.36 16.74 20.41 16.97 20.41C17.28 20.41 17.49 20.33 17.62 20.18C17.74 20.03 17.81 19.87 17.83 19.68L18.35 11.57L18.27 11.55C18.14 11.52 17.96 11.49 17.71 11.47C17.47 11.44 17.22 11.43 16.97 11.43C16.47 11.43 16.12 11.53 15.89 11.73C15.66 11.93 15.55 12.19 15.55 12.49L16.13 20.24L16.2 20.26ZM15.77 23.29C16.11 22.95 16.52 22.78 16.99 22.78C17.48 22.78 17.9 22.95 18.24 23.29C18.58 23.63 18.75 24.05 18.75 24.54C18.75 25.01 18.58 25.42 18.24 25.76C17.9 26.1 17.48 26.27 16.99 26.27C16.52 26.27 16.11 26.1 15.77 25.76C15.43 25.42 15.26 25.01 15.26 24.54C15.26 24.05 15.43 23.63 15.77 23.29Z" fill="#333333"/>
</g>
<defs>
<clipPath id="clip0_6_1614">
<rect width="34" height="34" fill="white"/>
</clipPath>
</defs>
</svg>
