<svg width="34" height="34" viewBox="0 0 34 34" fill="none" xmlns="http://www.w3.org/2000/svg">
<path d="M5.99995 12.64C6.00995 12.84 6.08995 13 6.24995 13.17L6.43995 13.36L16.5 23.42C16.69 23.61 16.94 23.71 17.21 23.71C17.48 23.71 17.73 23.61 17.92 23.42L28.06 13.28L28.18 13.15C28.34 12.99 28.42 12.82 28.43 12.62C28.44 12.45 28.28 12.18 27.99 11.89C27.8 11.7 27.6 11.52 27.4 11.35C27.35 11.31 27.3 11.27 27.26 11.24L26.76 11.74L17.57 20.93L17.2 21.3L16.85 20.95L7.64995 11.75L7.16995 11.27C7.12995 11.3 7.07995 11.34 7.02995 11.38C6.82995 11.55 6.62995 11.73 6.43995 11.92C6.14995 12.2 5.98995 12.46 5.99995 12.64Z" fill="#333333"/>
</svg>
