<svg width="34" height="34" viewBox="0 0 34 34" fill="none" xmlns="http://www.w3.org/2000/svg">
<path d="M12.28 6.2C12.48 6.21 12.64 6.29 12.81 6.45L13 6.63L23.07 16.7C23.26 16.89 23.36 17.14 23.36 17.41C23.36 17.68 23.26 17.93 23.07 18.12L12.93 28.25L12.8 28.37C12.64 28.53 12.47 28.61 12.27 28.62C12.16 28.62 11.93 28.56 11.55 28.18C11.36 27.99 11.18 27.79 11.01 27.59C10.97 27.54 10.93 27.49 10.9 27.45L11.4 26.95L20.59 17.76L20.94 17.41L20.59 17.06L11.39 7.86L10.91 7.38C10.94 7.34 10.98 7.29 11.02 7.24C11.19 7.04 11.37 6.84 11.56 6.65C11.94 6.27 12.17 6.21 12.28 6.21" fill="#333333"/>
</svg>
