<svg width="34" height="34" viewBox="0 0 34 34" fill="none" xmlns="http://www.w3.org/2000/svg">
<path fill-rule="evenodd" clip-rule="evenodd" d="M28.17 7.74C28.17 7.46 28.06 7.21 27.85 7.01L23.23 2.39L23.16 2.34C22.97 2.16 22.72 2.06 22.47 2.06H8.59C7.88 2.06 7.27 2.29 6.78 2.75C6.25 3.23 6 3.96 6 4.98V29.15C6 30.17 6.25 30.9 6.78 31.38C7.27 31.84 7.88 32.07 8.59 32.07H19.8044C19.133 31.4968 18.5577 30.8143 18.1061 30.05H8.59C8.4 30.05 8.27 30.01 8.16 29.91C8.09 29.81 8.02 29.56 8.02 29.14V4.98C8.02 4.54 8.09 4.31 8.13 4.25L8.15 4.23C8.27 4.12 8.4 4.08 8.59 4.08H20.25V9.95H26.16V10.04H26.15V18.0835C26.8577 18.1863 27.5353 18.3818 28.17 18.6573V7.74ZM18 26C18 22.1325 21.1325 19 25 19C28.8675 19 32 22.1325 32 26C32 29.8675 28.8675 33 25 33C21.1325 33 18 29.8675 18 26ZM24 30.94C24.0271 30.9454 24.0571 30.9479 24.09 30.9506C24.1179 30.9529 24.1479 30.9554 24.18 30.96C24.44 30.99 24.71 31 24.98 31C25.39 31 25.69 30.93 25.81 30.8C25.95 30.65 26.01 30.47 26.01 30.24V27H29.95C29.9554 26.9729 29.9579 26.9429 29.9606 26.91V26.91C29.9629 26.8821 29.9654 26.8521 29.97 26.82C30 26.56 30.01 26.29 30.01 26.02C30.01 25.61 29.94 25.31 29.81 25.19C29.66 25.05 29.48 24.99 29.25 24.99H26.01V21.06C25.9829 21.0546 25.9529 21.0521 25.92 21.0494C25.8921 21.0471 25.8621 21.0446 25.83 21.04C25.56 21.01 25.29 21 25.03 21C24.62 21 24.32 21.07 24.2 21.2C24.06 21.35 24 21.53 24 21.76V25H20.06C20.0546 25.0271 20.0521 25.0571 20.0494 25.09C20.0471 25.1179 20.0446 25.1479 20.04 25.18C20.02 25.44 20 25.71 20 25.97C20 26.38 20.07 26.68 20.2 26.8C20.35 26.94 20.53 27 20.76 27H24V30.94Z" fill="#333333"/>
</svg>
