<svg width="34" height="34" viewBox="0 0 34 34" fill="none" xmlns="http://www.w3.org/2000/svg">
<path fill-rule="evenodd" clip-rule="evenodd" d="M17 3C24.72 3 31 9.28 31 17C31 24.72 24.72 31 17 31C9.28 31 3 24.72 3 17C3 9.28 9.28 3 17 3ZM17 1C8.16 1 1 8.16 1 17C1 25.84 8.16 33 17 33C25.84 33 33 25.84 33 17C33 8.16 25.84 1 17 1ZM16.84 13.36C16.37 13.36 16.05 13.45 15.9 13.61C15.74 13.79 15.66 14 15.66 14.29V26.51C15.6974 26.5142 15.7383 26.52 15.7812 26.5262C15.8415 26.5349 15.9057 26.5442 15.97 26.55C16.24 26.58 16.51 26.59 16.78 26.59C17.39 26.59 17.65 26.46 17.75 26.34C17.91 26.16 17.99 25.95 17.99 25.66V13.44C17.9525 13.4358 17.9116 13.43 17.8687 13.4238L17.8687 13.4238C17.8085 13.4151 17.7442 13.4058 17.68 13.4C17.41 13.37 17.12 13.36 16.84 13.36ZM15.62 7.66001C15.96 7.32001 16.37 7.15001 16.84 7.15001C17.33 7.15001 17.75 7.32001 18.09 7.66001C18.43 8.00001 18.6 8.42001 18.6 8.91001C18.6 9.38001 18.43 9.79001 18.09 10.13C17.75 10.47 17.33 10.64 16.84 10.64C16.37 10.64 15.96 10.47 15.62 10.13C15.28 9.79001 15.11 9.38001 15.11 8.91001C15.11 8.42001 15.28 8.00001 15.62 7.66001Z" fill="#333333"/>
</svg>
