<svg width="34" height="34" viewBox="0 0 34 34" fill="none" xmlns="http://www.w3.org/2000/svg">
<path fill-rule="evenodd" clip-rule="evenodd" d="M30.8215 9.63035C31.0168 9.43509 31.0168 9.1185 30.8215 8.92324L23.8028 1.90454C23.4878 1.58956 22.9492 1.81264 22.9492 2.25809L22.9493 5.81857C22.9493 6.09471 22.7267 6.31857 22.4505 6.31857H19C6.50002 6.31857 11 24 11 24C11 24 11.5911 12.3186 19 12.3186H22.4513C22.7274 12.3186 22.9492 12.5424 22.9492 12.8186L22.9492 16.2955C22.9492 16.7409 23.4878 16.964 23.8028 16.649L30.8215 9.63035ZM29.48 17.82C29.7 17.82 29.89 18.01 29.89 18.22V18.42V27.43C29.89 29.94 27.85 31.98 25.34 31.98H6.42C3.91 31.98 1.87 29.94 1.87 27.43V8.51002C1.87 6.00002 3.91 3.96002 6.42 3.96002H10.68C10.91 3.96002 11.09 4.14002 11.09 4.37002C11.09 4.49002 11.04 4.60002 10.94 4.68002L10.85 4.77002V4.78002L9.62 5.97002H6.42C5.01 5.97002 3.86999 7.12002 3.86999 8.52002V27.45C3.86999 28.86 5.02 30 6.42 30H25.33C26.74 30 27.88 28.85 27.88 27.45V19.25L29.07 18.06L29.08 18.07L29.17 17.97C29.26 17.87 29.36 17.82 29.48 17.82Z" fill="#333333"/>
</svg>
