<svg width="34" height="34" viewBox="0 0 34 34" fill="none" xmlns="http://www.w3.org/2000/svg">
<path d="M16.84 2.99001C24.56 2.99001 30.84 9.27001 30.84 16.99C30.84 24.71 24.56 30.99 16.84 30.99C9.11997 30.99 2.83997 24.71 2.83997 16.99C2.83997 9.27001 9.11997 2.99001 16.84 2.99001ZM16.84 0.990005C7.99997 0.990005 0.839966 8.15001 0.839966 16.99C0.839966 25.83 7.99997 32.99 16.84 32.99C25.68 32.99 32.84 25.83 32.84 16.99C32.84 8.15001 25.68 0.990005 16.84 0.990005Z" fill="#333333"/>
<path d="M22.4799 17.69L14.5599 25.61L14.4299 25.73C14.2699 25.89 14.0999 25.97 13.8999 25.98C13.7899 25.98 13.5599 25.92 13.1799 25.54C12.9899 25.35 12.8099 25.15 12.6399 24.95C12.5999 24.9 12.5599 24.85 12.5299 24.81L13.0299 24.31L19.9999 17.34L20.3499 16.99L19.9999 16.63L13.2499 9.88001L12.7699 9.40001C12.7999 9.36001 12.8399 9.31001 12.8799 9.26001C13.0499 9.06001 13.2299 8.86001 13.4199 8.67001C13.7999 8.29001 14.0299 8.23001 14.1399 8.23001V7.98001C14.1399 7.98001 14.1399 7.98001 14.1499 7.98001L14.1599 8.23001C14.3599 8.24001 14.5199 8.32001 14.6899 8.48001L14.8799 8.66001L22.4999 16.28C22.6899 16.47 22.7899 16.72 22.7899 16.99C22.7899 17.26 22.6699 17.5 22.4799 17.69Z" fill="#333333"/>
</svg>
