<svg width="34" height="34" viewBox="0 0 34 34" fill="none" xmlns="http://www.w3.org/2000/svg">
<path d="M16.82 4.12L28.64 17.26V29.92L22.74 29.91V20.34V18.34H20.74H13.16H11.17L11.16 20.33C11.15 21.55 11.16 27.99 11.16 29.9H5.26001C5.26001 25.75 5.26001 18.36 5.26001 16.99L16.82 4.12ZM16.82 2.04C16.35 2.04 15.87 2.22 15.51 2.59L3.74001 15.7C3.44001 16.01 3.27001 16.37 3.26001 16.77C3.26001 16.82 3.26001 30.06 3.26001 30.06V31.53C3.26001 31.53 3.38001 31.92 3.60001 31.92C3.66001 31.92 11.5 31.92 11.55 31.92C11.56 31.92 11.57 31.91 11.58 31.91C12.12 31.88 12.52 31.75 12.74 31.5C13 31.22 13.16 30.87 13.16 30.46C13.16 30.46 13.15 21.79 13.16 20.36C15.55 20.36 18.36 20.36 20.74 20.36C20.74 20.36 20.74 31.49 20.74 31.58C20.74 31.9 21.01 31.93 21.1 31.93C21.12 31.93 21.13 31.93 21.13 31.93L28.8 31.94C29.03 31.94 29.24 31.89 29.45 31.82C29.55 31.79 29.62 31.74 29.7 31.7C29.76 31.67 29.82 31.64 29.87 31.6C29.91 31.57 29.97 31.55 30.01 31.52C30.03 31.5 30.03 31.48 30.05 31.46C30.42 31.12 30.65 30.63 30.65 30.09V17.04C30.65 16.81 30.6 16.65 30.52 16.52C30.44 16.34 30.32 16.17 30.17 16.01L18.13 2.58C17.77 2.22 17.3 2.04 16.82 2.04Z" fill="#333333"/>
</svg>
