<svg width="34" height="34" viewBox="0 0 34 34" fill="none" xmlns="http://www.w3.org/2000/svg">
<path fill-rule="evenodd" clip-rule="evenodd" d="M30.84 16.99C30.84 9.27001 24.56 2.99001 16.84 2.99001C9.11997 2.99001 2.83997 9.27001 2.83997 16.99C2.83997 24.71 9.11997 30.99 16.84 30.99C24.56 30.99 30.84 24.71 30.84 16.99ZM0.839966 16.99C0.839966 8.15001 7.99997 0.990005 16.84 0.990005C25.68 0.990005 32.84 8.15001 32.84 16.99C32.84 25.83 25.68 32.99 16.84 32.99C7.99997 32.99 0.839966 25.83 0.839966 16.99ZM25.81 17.99H8.62996C8.39996 17.99 8.21996 17.93 8.06996 17.78C7.93996 17.66 7.86996 17.36 7.86996 16.95C7.86996 16.69 7.88996 16.42 7.90996 16.16C7.91455 16.1279 7.91703 16.0979 7.91934 16.07C7.92207 16.0371 7.92455 16.0071 7.92996 15.98H25.11C25.34 15.98 25.52 16.04 25.67 16.18C25.8 16.3 25.87 16.6 25.87 17.01C25.87 17.28 25.86 17.55 25.83 17.81C25.8254 17.8421 25.8229 17.8721 25.8206 17.9C25.8179 17.9329 25.8154 17.9629 25.81 17.99Z" fill="#333333"/>
</svg>
