<svg width="34" height="34" viewBox="0 0 34 34" fill="none" xmlns="http://www.w3.org/2000/svg">
<path fill-rule="evenodd" clip-rule="evenodd" d="M27.49 10.58C27.73 11.2 28.09 11.5 28.59 11.5H28.6L29.53 11.48C29.5919 11.4884 29.6544 11.4965 29.7173 11.5046C30.03 11.5451 30.3519 11.5867 30.66 11.67C31.51 11.89 32.05 12.47 32.25 13.39C32.36 13.85 32.44 14.34 32.54 15C32.71 16.17 32.15 17.06 30.86 17.64C30.44 17.83 29.99 17.98 29.57 18.12C29.29 18.21 29.21 18.38 29.12 18.65C28.81 19.52 29.05 20.18 29.86 20.73C30.3 21.02 30.66 21.53 30.95 21.98C31.35 22.6 31.36 23.3 30.99 24C30.67 24.61 30.37 25.16 30.01 25.68C29.59 26.3 28.96 26.61 28.15 26.61H28.04C27.3199 26.5908 26.6459 26.3227 25.9914 26.0624C25.9642 26.0516 25.9371 26.0408 25.91 26.03C25.8 25.99 25.7 25.97 25.61 25.97C25.45 25.97 25.31 26.04 25.15 26.13C24.35 26.62 24.11 27.28 24.4 28.21C24.59 28.81 24.59 29.44 24.39 30.03C24.14 30.75 23.69 31.23 23.01 31.49C22.9731 31.504 22.936 31.5181 22.8989 31.5322C22.4332 31.7094 21.9516 31.8925 21.47 32.05C21.23 32.13 20.98 32.17 20.73 32.17C20.05 32.17 19.44 31.87 19.01 31.32C18.6846 30.9017 18.4025 30.4403 18.1234 29.9838C18.1023 29.9492 18.0811 29.9146 18.06 29.88L17.93 29.66C17.78 29.41 17.6 29.34 17.37 29.31C17.21 29.29 17.07 29.28 16.94 29.28C16.18 29.28 15.69 29.64 15.43 30.37C15.3457 30.6228 15.1475 30.858 14.9502 31.0922C14.9368 31.1081 14.9234 31.1241 14.91 31.14L14.75 31.33C14.3 31.86 13.69 32.16 13.02 32.16C12.77 32.16 12.52 32.12 12.27 32.04C12.03 31.97 11.79 31.88 11.55 31.79C11.4766 31.7633 11.4033 31.7356 11.3299 31.7078C11.1833 31.6522 11.0366 31.5967 10.89 31.55C9.47996 31.08 9.13996 29.75 9.26996 28.75C9.29209 28.5951 9.31965 28.4402 9.34865 28.2774C9.35896 28.2194 9.36946 28.1604 9.37996 28.1C9.39397 28.0089 9.40921 27.9191 9.42439 27.8296C9.45254 27.6636 9.48047 27.4989 9.49996 27.33C9.51996 27.12 9.43996 26.87 9.29996 26.74L9.12996 26.56C9.11332 26.5434 9.09667 26.5266 9.08 26.5099C8.84636 26.275 8.60866 26.036 8.30996 25.98C8.25996 25.97 8.20996 25.97 8.15996 25.97C7.90996 25.97 7.65996 26.08 7.41996 26.19C7.38092 26.2056 7.34188 26.2228 7.30343 26.2396C7.2434 26.266 7.18482 26.2917 7.12996 26.31C6.71996 26.45 6.16996 26.62 5.61996 26.62C5.37996 26.62 5.14996 26.59 4.92996 26.53C4.35996 26.37 3.92996 26.05 3.64996 25.57L3.43996 25.22C3.21996 24.86 3.00996 24.49 2.79996 24.12C2.32996 23.29 2.36996 22.48 2.90996 21.77C3.25906 21.3171 3.68826 20.9266 4.1136 20.5395C4.13907 20.5163 4.16453 20.4932 4.18996 20.47L4.47996 20.21C4.70996 20 4.75996 19.8 4.75996 19.52C4.75996 18.58 4.30996 18.04 3.34996 17.82C2.94996 17.73 2.55996 17.48 2.18996 17.24C1.37996 16.72 1.04996 15.99 1.17996 15.01C1.24996 14.52 1.33996 14 1.47996 13.35C1.69996 12.32 2.54996 11.59 3.59996 11.52C3.76592 11.5067 3.93627 11.5023 4.10519 11.4978C4.19074 11.4956 4.27592 11.4934 4.35996 11.49H4.42996L4.45908 11.489C4.75 11.4793 5.04998 11.4694 5.34996 11.45C5.54996 11.44 5.76996 11.31 5.87996 11.15L6.02996 10.95C6.23996 10.67 6.44996 10.38 6.45996 10.05C6.46996 9.75 6.27996 9.47 6.09996 9.21C6.03997 9.13 5.98997 9.04001 5.93997 8.95001L5.93996 8.95C5.62996 8.41 5.30996 7.76 5.32996 7.03C5.33996 6.38 5.56996 5.85 6.01996 5.45C6.54996 4.97 7.01996 4.58 7.45996 4.23C7.81996 3.96 8.26996 3.81 8.74996 3.81C9.24996 3.81 9.73996 3.96 10.19 4.26C10.63 4.56 11.05 4.91 11.46 5.26L11.56 5.34C11.66 5.43 11.8 5.52 11.98 5.52C12.06 5.52 12.15 5.5 12.24 5.46C12.3141 5.42294 12.4047 5.39687 12.4995 5.36957C12.5327 5.36004 12.5663 5.35035 12.6 5.34C12.87 5.27 13.17 5.18 13.35 4.97C13.52 4.77 13.55 4.49 13.58 4.21C13.5847 4.17707 13.5888 4.14415 13.5929 4.11148C13.6063 4.00525 13.6194 3.90178 13.65 3.81L13.73 3.55C13.7342 3.53618 13.7384 3.52236 13.7426 3.50853C13.8784 3.06182 14.0166 2.60769 14.23 2.21C14.58 1.56 15.2 1.2 16.01 1.17H16.76H17.07C17.1657 1.17 17.3735 1.16533 17.505 1.16237C17.5659 1.161 17.6105 1.16 17.62 1.16C18.77 1.16 19.59 1.83 19.94 3.03C20.0135 3.31492 20.0701 3.60829 20.1254 3.89458C20.1303 3.91978 20.1351 3.94492 20.14 3.97C20.1429 3.98699 20.1459 4.00404 20.1488 4.02113C20.186 4.23541 20.2244 4.45699 20.28 4.67C20.33 4.85 20.48 5.05 20.65 5.12C20.72 5.15 20.79 5.18 20.88 5.23C20.889 5.23435 20.898 5.23871 20.9071 5.24307C21.1687 5.36921 21.44 5.5 21.73 5.5C22.11 5.45 22.35 5.23 22.57 5.02C22.65 4.94 22.73 4.86 22.81 4.8C23.4 4.33 24.02 3.85 24.82 3.82H24.95C25.51 3.82 25.97 3.98 26.36 4.3L26.64 4.53C26.7159 4.59285 26.7918 4.65501 26.8676 4.71702C27.0812 4.89183 27.2933 5.06547 27.5 5.25C28.46 6.1 28.67 6.92 28.21 8.09C28.04 8.53 27.79 8.96 27.55 9.37L27.37 9.68C27.26 9.87 27.23 10.08 27.39 10.39L27.49 10.58ZM29.12 16.37C29.48 16.24 29.84 16.11 30.2 15.97C30.71 15.77 30.88 15.44 30.72 14.97C30.6986 14.8917 30.6874 14.8084 30.6755 14.72C30.6707 14.6842 30.6657 14.6475 30.66 14.61C30.65 14.52 30.64 14.44 30.63 14.36C30.46 13.41 30.38 13.33 29.4 13.26C29.26 13.25 29.12 13.25 28.98 13.25L27.2 13.22C26.96 13.22 26.83 13.14 26.71 12.9C26.35 12.2 25.9 11.37 25.38 10.58C25.13 10.21 25.12 9.96 25.33 9.61C25.569 9.21731 25.7934 8.81733 26.022 8.41007C26.0612 8.34026 26.1005 8.27024 26.14 8.2L26.48 7.6C26.72 7.18 26.65 6.81 26.27 6.53C26.12 6.42 25.98 6.3 25.84 6.18C25.79 6.14 25.7425 6.1 25.695 6.06C25.6475 6.02 25.6 5.98 25.55 5.94C25.31 5.74 25.11 5.62 24.89 5.62C24.67 5.62 24.47 5.74 24.22 5.95C23.6802 6.39983 23.1404 6.85966 22.6006 7.31949L22.6 7.32C22.4 7.48 22.25 7.55 22.08 7.55C21.97 7.55 21.85 7.51 21.71 7.45C20.94 7.09 20.29 6.83 19.61 6.69C18.93 6.55 18.63 6.2 18.55 5.44C18.4961 4.97288 18.4018 4.51382 18.3107 4.07009C18.3004 4.01986 18.2901 3.96983 18.28 3.92L18.2 3.51C18.12 3.12 17.86 2.9 17.47 2.9C17.23 2.92 17.06 2.92 16.88 2.92C16.67 2.92 16.45 2.92 16.23 2.91C15.88 2.91 15.65 3.07 15.56 3.39C15.5493 3.42542 15.5393 3.45834 15.53 3.48919C15.4864 3.63251 15.4564 3.73125 15.44 3.83L15.02 6.09C14.98 6.33 14.86 6.45 14.58 6.54L14.5601 6.54649C13.648 6.8439 12.8242 7.11253 12.03 7.46C11.89 7.52 11.76 7.55 11.65 7.55C11.48 7.55 11.32 7.49 11.14 7.33C10.59 6.86 10.04 6.4 9.48996 5.94C9.21996 5.72 9.03996 5.63 8.83996 5.63C8.64996 5.63 8.46996 5.71 8.20996 5.92C8.1757 5.94831 8.14165 5.9764 8.10779 6.00433C7.91441 6.16386 7.72719 6.31831 7.53996 6.48C7.02996 6.92 6.98996 7.14 7.29996 7.71C7.49465 8.06397 7.70325 8.42838 7.93194 8.82787C8.09089 9.10554 8.25954 9.40016 8.43996 9.72C8.59996 10 8.58996 10.21 8.39996 10.51C7.94996 11.23 7.49996 12.01 6.99996 12.95C6.88996 13.15 6.77996 13.23 6.58996 13.24L5.19996 13.3H3.93996C3.46996 13.3 3.20996 13.52 3.15996 13.96C3.10996 14.36 3.03996 14.75 2.95996 15.1C2.87996 15.45 3.00996 15.72 3.33996 15.88C3.67996 16.04 4.01996 16.18 4.27996 16.28C4.38496 16.32 4.48746 16.3575 4.58996 16.395C4.69246 16.4325 4.79496 16.47 4.89996 16.51L5.04996 16.57C5.18996 16.625 5.32997 16.6775 5.46997 16.73C5.60997 16.7825 5.74996 16.835 5.88996 16.89C6.09996 16.98 6.19996 17.11 6.22996 17.35L6.28996 17.83C6.35996 18.46 6.43996 19.11 6.62996 19.72C6.83996 20.38 6.68996 20.81 6.10996 21.19C6.04996 21.23 5.98996 21.28 5.92996 21.33L5.51996 21.67C5.40198 21.7723 5.28245 21.873 5.16259 21.9739C4.97768 22.1297 4.79198 22.2862 4.60996 22.45C4.28996 22.73 4.21996 23.03 4.39996 23.33L4.61996 23.71C4.76996 23.99 4.93996 24.28 5.11996 24.55C5.21996 24.7 5.45996 24.82 5.67996 24.82H5.68996C6.13996 24.72 6.52996 24.6 6.89996 24.48C6.89996 24.48 7.47996 24.3 7.64996 24.24C7.69537 24.2249 7.74169 24.2093 7.78876 24.1934C8.05266 24.1046 8.33991 24.0079 8.61996 23.94C8.75996 23.94 8.86996 24 8.93996 24.05C9.075 24.158 9.2123 24.2667 9.35094 24.3764C9.98232 24.8762 10.6414 25.3978 11.24 25.98C11.36 26.09 11.43 26.36 11.46 26.52C11.47 26.58 11.45 26.67 11.43 26.76L11.4 26.9L11.28 27.57C11.2 28.01 11.13 28.45 11.06 28.89C10.96 29.54 11.05 29.7 11.67 29.93C11.8919 30.0172 12.12 30.0981 12.3445 30.1777C12.4033 30.1985 12.4619 30.2192 12.52 30.24C12.71 30.31 12.86 30.34 12.98 30.34C13.35 30.34 13.54 30.07 13.69 29.81L14.84 27.82C14.98 27.58 15.14 27.48 15.41 27.48C15.94 27.5 16.44 27.51 16.93 27.51C17.37 27.51 17.82 27.51 18.26 27.49H18.31C18.61 27.49 18.78 27.59 18.93 27.85C19.31 28.52 19.69 29.18 20.08 29.84C20.29 30.19 20.5 30.34 20.79 30.34C20.91 30.34 21.05 30.32 21.21 30.26C21.5 30.16 21.8 30.05 22.09 29.94C22.71 29.71 22.8 29.55 22.7 28.9C22.6533 28.5733 22.5977 28.2467 22.5422 27.92C22.5144 27.7567 22.4866 27.5933 22.46 27.43L22.3 26.49C22.27 26.27 22.33 26.12 22.5 25.98C22.7471 25.7809 22.9895 25.5772 23.2336 25.3719C23.3452 25.2781 23.4571 25.1841 23.57 25.09C23.7016 24.9803 23.8322 24.8706 23.9625 24.7613C24.2479 24.5216 24.5316 24.2835 24.82 24.05C24.9 23.99 25.02 23.93 25.05 23.93C25.4527 24.0143 25.8115 24.1249 26.1758 24.2371C26.2005 24.2448 26.2252 24.2524 26.25 24.26L27.95 24.81C28.02 24.83 28.09 24.84 28.15 24.84C28.31 24.84 28.53 24.77 28.69 24.48C28.78 24.32 29.21 23.58 29.21 23.58C29.56 22.96 29.52 22.78 28.98 22.3C28.53 21.91 28.08 21.53 27.63 21.15L27.19 20.78C27 20.62 26.95 20.44 27.01 20.14C27.22 19.13 27.38 18.24 27.49 17.41C27.53 17.1 27.63 16.95 27.87 16.85C28.08 16.76 28.28 16.68 28.49 16.6L29.12 16.37ZM12.11 21.38C13.39 22.67 15.1 23.39 16.93 23.39V23.4H16.95C20.66 23.4 23.7 20.37 23.73 16.66C23.75 12.92 20.72 9.86 16.89 9.82C13.19 9.82 10.16 12.85 10.14 16.57C10.14 18.39 10.83 20.09 12.11 21.38ZM13.58 13.33C14.47 12.4 15.66 11.89 16.93 11.89C18.25 11.89 19.46 12.42 20.37 13.39C21.24 14.31 21.72 15.52 21.65 16.61C21.71 17.69 21.22 18.92 20.36 19.83C19.46 20.78 18.25 21.31 16.94 21.31C13.96 21.31 12.27 18.66 12.2 16.75C12.16 15.56 12.67 14.28 13.58 13.33Z" fill="#333333"/>
</svg>
