<svg width="34" height="34" viewBox="0 0 34 34" fill="none" xmlns="http://www.w3.org/2000/svg">
<path fill-rule="evenodd" clip-rule="evenodd" d="M10.57 8.42C10.57 4.87 13.46 1.98 16.99 1.98H17.01C20.57 2 23.43 4.88 23.43 8.42C23.43 11.95 20.54 14.84 17 14.84C13.47 14.84 10.57 11.95 10.57 8.42ZM21.34 15.27C21.24 15.27 21.12 15.31 21.04 15.37C19.85 16.33 18.43 16.82 17.01 16.82C15.73 16.82 14.45 16.42 13.33 15.61C13.05 15.41 12.82 15.32 12.56 15.32C12.39 15.32 12.22 15.36 12.02 15.43C9.98 16.12 8.13 17.13 6.73 18.83C5.72 20.07 5 21.43 5 23.09V31.52V31.98H28.99C29 31.88 29 31.81 29 31.74C29 30.737 29.0011 29.7519 29.0022 28.7732C29.0045 26.8344 29.0066 24.9203 29 22.94C29 22.59 28.95 22.22 28.87 21.88C28.38 19.94 27.22 18.47 25.66 17.3C24.38 16.34 22.95 15.7 21.42 15.28C21.411 15.28 21.4 15.278 21.3879 15.2758C21.373 15.273 21.3565 15.27 21.34 15.27Z" fill="#333333"/>
</svg>
