<svg width="34" height="34" viewBox="0 0 34 34" fill="none" xmlns="http://www.w3.org/2000/svg">
<path fill-rule="evenodd" clip-rule="evenodd" d="M33.02 24.47C33.02 26.3525 31.8725 27.9706 30.2398 28.662C29.8482 28.8279 29.4287 28.9404 28.9905 28.9905C28.7316 31.256 26.804 33.02 24.47 33.02H5.55C3.04 33.02 1 30.98 1 28.47V9.55C1 7.21598 2.76398 5.28836 5.02954 5.02954C5.28836 2.76398 7.21598 1 9.55 1H9.55002H13.81H13.8108L28.47 1C30.98 1 33.02 3.04 33.02 5.55V24.47ZM5 7.06974V24.47C5 26.98 7.04 29.02 9.55 29.02H24.2082L24.21 29.02H26.9544C26.7098 30.1689 25.6872 31.04 24.46 31.04H5.55C4.15 31.04 3 29.9 3 28.49V9.56C3 8.34754 3.85504 7.32258 5 7.06974ZM28.47 27.01C29.5918 27.01 30.5426 26.2821 30.8845 25.2796C30.966 25.0306 31.01 24.7651 31.01 24.49V16.29L31.02 16.28L31.02 5.53C31.02 4.12 29.87 2.98 28.47 2.98L12.781 2.98L12.75 3.01H9.55C8.42829 3.01 7.47746 3.73781 7.13554 4.7403C7.05406 4.98932 7.01002 5.25483 7.01002 5.53L7.01002 13.73L7 13.74V24.49C7 25.9 8.15 27.04 9.55 27.04H25.239L25.27 27.01H28.47Z" fill="#333333"/>
</svg>
