<svg width="34" height="34" viewBox="0 0 34 34" fill="none" xmlns="http://www.w3.org/2000/svg">
<g clip-path="url(#clip0_6_1349)">
<g clip-path="url(#clip1_6_1349)">
<path d="M16.84 2.99001C24.56 2.99001 30.84 9.27001 30.84 16.99C30.84 24.71 24.56 30.99 16.84 30.99C9.11997 30.99 2.83997 24.71 2.83997 16.99C2.83997 9.27001 9.11997 2.99001 16.84 2.99001ZM16.84 0.990005C7.99997 0.990005 0.839966 8.15001 0.839966 16.99C0.839966 25.83 7.99997 32.99 16.84 32.99C25.68 32.99 32.84 25.83 32.84 16.99C32.84 8.15001 25.68 0.990005 16.84 0.990005Z" fill="#4A4A4C"/>
<path d="M20.6599 24.95C20.4899 25.15 20.3099 25.35 20.1199 25.54C19.7399 25.92 19.5099 25.98 19.3999 25.98C19.1999 25.97 19.0299 25.89 18.8699 25.73L18.7399 25.61L10.8199 17.69C10.6299 17.5 10.5299 17.25 10.5299 16.98C10.5299 16.71 10.6299 16.46 10.8199 16.27L18.4399 8.65L18.6299 8.47C18.7899 8.31 18.9599 8.23 19.1599 8.22L19.1699 7.97C19.1699 7.97 19.1699 7.97 19.1799 7.97V8.22C19.2799 8.22 19.5099 8.28 19.8999 8.66C20.0899 8.85 20.2699 9.05 20.4399 9.25C20.4799 9.3 20.5199 9.35 20.5499 9.39L20.0699 9.87L13.3199 16.62L12.9699 16.97L13.3199 17.32L20.2999 24.3L20.7999 24.8C20.7399 24.85 20.6999 24.9 20.6599 24.95Z" fill="#4A4A4C"/>
</g>
</g>
<defs>
<clipPath id="clip0_6_1349">
<rect width="34" height="34" fill="white"/>
</clipPath>
<clipPath id="clip1_6_1349">
<rect width="34" height="34" fill="white"/>
</clipPath>
</defs>
</svg>
