<svg width="34" height="34" viewBox="0 0 34 34" fill="none" xmlns="http://www.w3.org/2000/svg">
<path d="M30.39 7.41H3.35998C2.52998 7.41 1.84998 8.09 1.84998 8.92V25.93C1.84998 26.76 2.52998 27.44 3.35998 27.44H30.39C31.22 27.44 31.9 26.76 31.9 25.93V8.92C31.9 8.08 31.22 7.41 30.39 7.41ZM28.85 25.44H4.84998V9.41H28.85V25.44ZM30.39 18.17C29.98 18.17 29.64 17.83 29.64 17.42C29.64 17.01 29.98 16.67 30.39 16.67C30.8 16.67 31.14 17.01 31.14 17.42C31.14 17.84 30.81 18.17 30.39 18.17Z" fill="#333333"/>
</svg>
