<svg width="34" height="34" viewBox="0 0 34 34" fill="none" xmlns="http://www.w3.org/2000/svg">
<path fill-rule="evenodd" clip-rule="evenodd" d="M30.84 16.99C30.84 9.27001 24.56 2.99001 16.84 2.99001C9.11997 2.99001 2.83997 9.27001 2.83997 16.99C2.83997 24.71 9.11997 30.99 16.84 30.99C24.56 30.99 30.84 24.71 30.84 16.99ZM0.839966 16.99C0.839966 8.15001 7.99997 0.990005 16.84 0.990005C25.68 0.990005 32.84 8.15001 32.84 16.99C32.84 25.83 25.68 32.99 16.84 32.99C7.99997 32.99 0.839966 25.83 0.839966 16.99ZM14.3732 25.72C14.7465 26.0747 15.1758 26.252 15.6612 26.252C16.1652 26.252 16.5945 26.0747 16.9492 25.72C17.3038 25.3467 17.4812 24.9173 17.4812 24.432C17.4812 23.928 17.3038 23.4987 16.9492 23.144C16.5945 22.7893 16.1652 22.612 15.6612 22.612C15.1758 22.612 14.7465 22.7893 14.3732 23.144C14.0185 23.4987 13.8412 23.928 13.8412 24.432C13.8412 24.9173 14.0185 25.3467 14.3732 25.72ZM14.6252 19.98C14.9985 20.1107 15.3438 20.176 15.6612 20.176C16.0345 20.176 16.3052 20.092 16.4732 19.924C16.6598 19.756 16.7718 19.5787 16.8092 19.392C16.8652 19.0187 16.9772 18.7013 17.1452 18.44C17.3132 18.16 17.5372 17.908 17.8172 17.684C18.0972 17.4413 18.4238 17.208 18.7972 16.984C19.1892 16.76 19.6372 16.508 20.1412 16.228C20.4585 16.06 20.7665 15.8547 21.0652 15.612C21.3825 15.3693 21.6532 15.0893 21.8772 14.772C22.1198 14.436 22.3158 14.0627 22.4652 13.652C22.6145 13.2413 22.6892 12.7747 22.6892 12.252C22.6892 11.58 22.5585 10.964 22.2972 10.404C22.0358 9.82533 21.6532 9.33066 21.1492 8.92C20.6452 8.49066 20.0198 8.164 19.2732 7.94C18.5265 7.69733 17.6772 7.576 16.7252 7.576C15.6425 7.576 14.5785 7.744 13.5332 8.08C12.4878 8.39733 11.6292 8.78 10.9572 9.228C10.9758 9.9 11.1158 10.432 11.3772 10.824C11.6385 11.1973 11.9652 11.384 12.3572 11.384C12.6185 11.384 12.8705 11.3373 13.1132 11.244C13.3745 11.132 13.6638 11.0107 13.9812 10.88C14.3172 10.7493 14.6998 10.6373 15.1292 10.544C15.5772 10.432 16.1092 10.376 16.7252 10.376C17.6212 10.376 18.3118 10.5813 18.7972 10.992C19.3012 11.384 19.5532 11.9067 19.5532 12.56C19.5532 12.9707 19.4318 13.3253 19.1892 13.624C18.9465 13.904 18.6385 14.1747 18.2652 14.436C17.8918 14.6787 17.4905 14.9307 17.0612 15.192C16.6318 15.4533 16.2305 15.7613 15.8572 16.116C15.4838 16.4707 15.1758 16.8907 14.9332 17.376C14.6905 17.8613 14.5692 18.4493 14.5692 19.14V19.56C14.5878 19.6907 14.6065 19.8307 14.6252 19.98Z" fill="#333333"/>
</svg>
