<svg width="34" height="34" viewBox="0 0 34 34" fill="none" xmlns="http://www.w3.org/2000/svg">
<path fill-rule="evenodd" clip-rule="evenodd" d="M30.84 16.99C30.84 9.27001 24.56 2.99001 16.84 2.99001C9.11997 2.99001 2.83997 9.27001 2.83997 16.99C2.83997 24.71 9.11997 30.99 16.84 30.99C24.56 30.99 30.84 24.71 30.84 16.99ZM0.839966 16.99C0.839966 8.15001 7.99997 0.990005 16.84 0.990005C25.68 0.990005 32.84 8.15001 32.84 16.99C32.84 25.83 25.68 32.99 16.84 32.99C7.99997 32.99 0.839966 25.83 0.839966 16.99ZM12.63 24.08L6.97997 18.43L6.79997 18.25C6.63997 18.08 6.55997 17.92 6.54997 17.72C6.53997 17.54 6.69997 17.28 6.98997 16.99C7.17997 16.8 7.37997 16.62 7.57997 16.45L7.58 16.45C7.62999 16.41 7.67998 16.37 7.71997 16.34L8.19997 16.82L12.99 21.6L13.34 21.95L13.69 21.6L24.83 10.48L25.33 9.98001C25.37 10.01 25.4199 10.05 25.4699 10.09L25.47 10.09C25.67 10.26 25.87 10.44 26.06 10.63C26.35 10.91 26.51 11.18 26.5 11.35C26.49 11.55 26.41 11.72 26.25 11.88L26.12 12.01L14.05 24.08C13.86 24.27 13.61 24.37 13.34 24.37C13.07 24.37 12.82 24.27 12.63 24.08Z" fill="#333333"/>
</svg>
