<svg width="34" height="34" viewBox="0 0 34 34" fill="none" xmlns="http://www.w3.org/2000/svg">
<g clip-path="url(#clip0_6_1616)">
<path fill-rule="nonzero" clip-rule="nonzero" d="M28.5537 10.122V29.74C28.5537 30.8995 28.1285 31.9884 27.3858 32.7697C26.6464 33.5532 25.6175 33.998 24.5407 33.9999H9.47542C8.3983 33.998 7.3694 33.5532 6.63038 32.7697C5.88763 31.9884 5.46244 30.8995 5.46244 29.74V10.122C3.98596 9.73011 3.02921 8.30371 3.22672 6.78865C3.42454 5.27391 4.71502 4.14081 6.24283 4.1405H10.3196V3.14519C10.3149 2.30819 10.6458 1.50448 11.2384 0.913198C11.8309 0.32223 12.6359 -0.00684497 13.4728 -2.19075e-06H20.5433C21.3803 -0.00684497 22.1853 0.32223 22.7778 0.913198C23.3703 1.50448 23.7012 2.30819 23.6966 3.14519V4.1405H27.7733C29.3011 4.14081 30.5916 5.27391 30.7894 6.78865C30.9869 8.30371 30.0302 9.73011 28.5537 10.122ZM9.47542 32.4074H24.5407C25.9021 32.4074 26.9612 31.2379 26.9612 29.74V10.192H7.05494V29.74C7.05494 31.2379 8.11402 32.4074 9.47542 32.4074ZM22.1041 3.14519C22.1094 2.73058 21.9464 2.33152 21.6521 2.03883C21.3582 1.74615 20.9582 1.58534 20.5433 1.5925H13.4728C13.0579 1.58534 12.6579 1.74615 12.364 2.03883C12.0698 2.33121 11.9068 2.73058 11.9121 3.14519V4.1405H22.1041V3.14519ZM27.7733 5.733H6.24283C5.45124 5.733 4.80958 6.37467 4.80958 7.16625C4.80958 7.95784 5.45124 8.5995 6.24283 8.5995H27.7733C28.5649 8.5995 29.2066 7.95784 29.2066 7.16625C29.2066 6.37467 28.5649 5.733 27.7733 5.733ZM22.5022 13.1145C22.5022 12.6747 22.1458 12.3183 21.7059 12.3183C21.2661 12.3183 20.9097 12.6747 20.9097 13.1145V28.1637C20.9097 28.6032 21.2661 28.9599 21.7059 28.9599C22.1458 28.9599 22.5022 28.6032 22.5022 28.1637V13.1145ZM13.1064 13.1145C13.1064 12.6747 12.75 12.3183 12.3102 12.3183C11.8704 12.3183 11.5139 12.6747 11.5139 13.1145V28.1637C11.5139 28.6032 11.8704 28.9599 12.3102 28.9599C12.75 28.9599 13.1064 28.6032 13.1064 28.1637V13.1145ZM17.8043 13.1145C17.8043 12.6747 17.4479 12.3183 17.0081 12.3183C16.5683 12.3183 16.2118 12.6747 16.2118 13.1145V28.1637C16.2118 28.6032 16.5683 28.9599 17.0081 28.9599C17.4479 28.9599 17.8043 28.6032 17.8043 28.1637V13.1145Z" fill="#333333"/>
</g>
<defs>
<clipPath id="clip0_6_1616">
<rect width="34" height="34" fill="white" transform="matrix(-1 0 0 1 34 0)"/>
</clipPath>
</defs>
</svg>
