<svg width="34" height="34" viewBox="0 0 34 34" fill="none" xmlns="http://www.w3.org/2000/svg">
<path fill-rule="nonzero" clip-rule="evenodd" d="M4 3H30C31.1 3 32 3.9 32 5V25C32 26.1 31.1 27 30 27H21.5C21.2 27 21 26.8 21 26.5V25.5C21 25.2 21.2 25 21.5 25H30V9H4V25H12.5C12.8 25 13 25.2 13 25.5V26.5C13 26.8 12.8 27 12.5 27H4C2.9 27 2 26.1 2 25V5C2 3.9 2.9 3 4 3ZM5 6C5 6.6 5.4 7 6 7C6.6 7 7 6.6 7 6C7 5.4 6.6 5 6 5C5.4 5 5 5.4 5 6ZM8 6C8 6.6 8.4 7 9 7C9.6 7 10 6.6 10 6C10 5.4 9.6 5 9 5C8.4 5 8 5.4 8 6ZM11 6C11 6.6 11.4 7 12 7C12.6 7 13 6.6 13 6C13 5.4 12.6 5 12 5C11.4 5 11 5.4 11 6ZM16 7H29C29.6 7 30 6.6 30 6C30 5.4 29.6 5 29 5H16C15.4 5 15 5.4 15 6C15 6.6 15.4 7 16 7ZM20 18.4L21.8 21.2C22.3 21.9 21.7 22.9 20.8 22.9H18.5V31.3C18.5 32 17.8 32.5 17 32.5C16.2 32.5 15.5 32 15.5 31.3V22.9H13.2C12.3 22.9 11.7 21.9 12.2 21.2L14 18.4L16 15.4C16.5 14.7 17.5 14.7 18 15.4L20 18.4Z" fill="#333333"/>
</svg>
