<svg width="34" height="34" viewBox="0 0 34 34" fill="none" xmlns="http://www.w3.org/2000/svg">
<path fill-rule="evenodd" clip-rule="evenodd" d="M20.92 12.66L20.12 11.86L18.53 10.26L17.68 9.41V10.62V20.24V20.94C17.65 20.945 17.62 20.9475 17.59 20.95C17.56 20.9525 17.53 20.955 17.5 20.96C17.23 20.99 16.97 21 16.7 21C16.29 21 15.99 20.93 15.87 20.8C15.73 20.65 15.67 20.47 15.67 20.24V10.62V9.41L14.82 10.26L13.23 11.85L11.76 13.32C11.72 13.29 11.67 13.25 11.62 13.21C11.42 13.05 11.22 12.87 11.03 12.68C10.74 12.39 10.58 12.12 10.59 11.95C10.6 11.74 10.68 11.57 10.84 11.41L11.01 11.24L11.81 10.44L15.96 6.29C16.15 6.1 16.4 6 16.67 6C16.94 6 17.19 6.1 17.38 6.29L22.33 11.24L23 11.91C22.97 11.95 22.93 12 22.89 12.05C22.73 12.25 22.55 12.45 22.36 12.64C21.97 13.02 21.74 13.08 21.63 13.08C21.42 13.07 21.25 12.99 21.09 12.83L20.92 12.66ZM30.89 19.69C30.89 19.48 30.7 19.29 30.48 19.29C30.36 19.29 30.26 19.34 30.17 19.44L30.08 19.54L30.07 19.53L28.88 20.72V22.92C28.88 24.32 27.74 25.47 26.33 25.47H7.42C6.02 25.47 4.86999 24.33 4.86999 22.92V19.48L2.87 19.47V22.9C2.87 25.41 4.91 27.45 7.42 27.45H26.34C28.85 27.45 30.89 25.41 30.89 22.9V19.89V19.69Z" fill="#333333"/>
</svg>
