<svg width="34" height="34" viewBox="0 0 34 34" fill="none" xmlns="http://www.w3.org/2000/svg">
<path fill-rule="evenodd" clip-rule="evenodd" d="M27.94 9.92H9.94001H9.94H9.19001C9.17001 10.02 9.15001 10.16 9.13001 10.34C9.11001 10.52 9.10001 10.71 9.10001 10.9C9.10001 11.29 9.18001 11.55 9.34001 11.7C9.50001 11.85 9.7 11.92 9.94 11.92C9.94 11.92 9.94 11.92 9.94001 11.92H27.95V11.91H28.69C28.71 11.81 28.73 11.67 28.75 11.49C28.77 11.31 28.78 11.12 28.78 10.93C28.78 10.55 28.7 10.29 28.54 10.14C28.3822 9.99209 28.1856 9.92196 27.95 9.92004V9.92H27.94ZM7 11C7 11.5523 6.55228 12 6 12C5.44772 12 5 11.5523 5 11C5 10.4477 5.44772 9.99999 6 9.99999C6.55228 9.99999 7 10.4477 7 11ZM6 18C6.55228 18 7 17.5523 7 17C7 16.4477 6.55228 16 6 16C5.44772 16 5 16.4477 5 17C5 17.5523 5.44772 18 6 18ZM9.94001 23.92C9.70001 23.92 9.50001 23.85 9.34001 23.7C9.18001 23.55 9.10001 23.29 9.10001 22.9C9.10001 22.71 9.11001 22.52 9.13001 22.34C9.15001 22.16 9.17001 22.02 9.19001 21.92H9.94001H27.94H27.95V21.92C28.1856 21.922 28.3822 21.9921 28.54 22.14C28.7 22.29 28.78 22.55 28.78 22.93C28.78 23.12 28.77 23.31 28.75 23.49C28.73 23.67 28.71 23.81 28.69 23.91H27.95V23.92H9.94001ZM6 24C6.55228 24 7 23.5523 7 23C7 22.4477 6.55228 22 6 22C5.44772 22 5 22.4477 5 23C5 23.5523 5.44772 24 6 24ZM9.94001 15.92H27.94H27.95V15.92C28.1856 15.922 28.3822 15.9921 28.54 16.14C28.7 16.29 28.78 16.55 28.78 16.93C28.78 17.12 28.77 17.31 28.75 17.49C28.73 17.67 28.71 17.81 28.69 17.91H27.95V17.92H9.94C9.70001 17.92 9.50001 17.85 9.34001 17.7C9.18001 17.55 9.10001 17.29 9.10001 16.9C9.10001 16.71 9.11001 16.52 9.13001 16.34C9.15001 16.16 9.17001 16.02 9.19001 15.92H9.94H9.94001Z" fill="#333333"/>
</svg>
