<svg width="34" height="34" viewBox="0 0 34 34" fill="none" xmlns="http://www.w3.org/2000/svg">
<path d="M30.6 14.931C30.5 14.931 30.4 14.931 30.3 15.131L30.2 15.231L29 16.431V26.631C29 28.031 27.9 29.131 26.5 29.131H7.5C6.1 29.131 5 28.031 5 26.631V7.63097C5 6.23097 6.1 5.13097 7.5 5.13097H17.7L18.9 3.93097L19 3.83097C19.1 3.73097 19.2 3.63097 19.2 3.53097C19.2 3.33097 19 3.13097 18.8 3.13097H7.5C5 3.13097 3 5.13097 3 7.63097V26.531C3 29.031 5 31.031 7.5 31.031H26.4C28.9 31.031 30.9 29.031 30.9 26.531V15.531V15.331C31 15.131 30.8 14.931 30.6 14.931Z" fill="#333333"/>
<path d="M31.5 1.03097L24 3.03097C23.1 3.23097 22.8 4.43097 23.5 5.03097L25.3 6.83097L16.3 16.031L14.6 14.331C13.9 13.631 12.8 13.931 12.6 14.831L10.6 22.331C10.1 23.331 11 24.131 11.9 23.931L19.4 21.931C20.3 21.731 20.6 20.531 19.9 19.931L18.1 17.931L27.1 8.73097L28.9 10.531C29.6 11.231 30.7 10.931 30.9 10.031L32.9 2.53097C33.2 1.63097 32.4 0.830967 31.5 1.03097Z" fill="#333333"/>
</svg>
