<svg width="40" height="31" viewBox="0 0 40 31" fill="none" xmlns="http://www.w3.org/2000/svg">
<g clip-path="url(#clip0_6_1352)">
<path fill-rule="evenodd" clip-rule="evenodd" d="M21.85 4.95C22.06 5.15 22.17 5.4 22.17 5.68V16.0235H20.15V7.98H20.16V7.89H14.25V2.02H2.59C2.4 2.02 2.27 2.06 2.15 2.17L2.13 2.19C2.09 2.25 2.02 2.48 2.02 2.92V27.08C2.02 27.5 2.09 27.75 2.16 27.85C2.27 27.95 2.4 27.99 2.59 27.99H12.1061V30.01H2.59C1.88 30.01 1.27 29.78 0.78 29.32C0.25 28.84 0 28.11 0 27.09V2.92C0 1.9 0.25 1.17 0.78 0.69C1.27 0.23 1.88 0 2.59 0H16.47C16.72 0 16.97 0.1 17.16 0.28L17.23 0.33L21.85 4.95ZM38 19H16C15.4477 19 15 19.4477 15 20V28C15 28.5523 15.4477 29 16 29H38C38.5523 29 39 28.5523 39 28V20C39 19.4477 38.5523 19 38 19ZM16 18C14.8954 18 14 18.8954 14 20V28C14 29.1046 14.8954 30 16 30H38C39.1046 30 40 29.1046 40 28V20C40 18.8954 39.1046 18 38 18H16ZM26.7366 27.11C26.3899 27.11 26.0066 27.08 25.5866 27.02C25.1666 26.96 24.7566 26.8633 24.3566 26.73C24.3432 26.3633 24.3866 26.0633 24.4866 25.83C24.5866 25.59 24.7766 25.47 25.0566 25.47C25.1632 25.47 25.2766 25.4833 25.3966 25.51C25.5232 25.53 25.6599 25.5533 25.8066 25.58C25.9532 25.6067 26.1099 25.6333 26.2766 25.66C26.4432 25.68 26.6232 25.69 26.8166 25.69C27.1432 25.69 27.3799 25.64 27.5266 25.54C27.6799 25.4333 27.7566 25.2967 27.7566 25.13C27.7566 24.9767 27.6832 24.86 27.5366 24.78C27.3899 24.7 27.1932 24.6233 26.9466 24.55L26.1866 24.35C25.8399 24.2567 25.5466 24.14 25.3066 24C25.0732 23.86 24.8832 23.7033 24.7366 23.53C24.5966 23.3567 24.4932 23.1733 24.4266 22.98C24.3666 22.78 24.3366 22.5733 24.3366 22.36C24.3366 22.14 24.3732 21.9133 24.4466 21.68C24.5266 21.4467 24.6632 21.2367 24.8566 21.05C25.0499 20.8567 25.3099 20.7 25.6366 20.58C25.9632 20.4533 26.3799 20.39 26.8866 20.39C27.2332 20.39 27.5866 20.42 27.9466 20.48C28.3066 20.54 28.6832 20.6367 29.0766 20.77C29.0966 21.1367 29.0566 21.4333 28.9566 21.66C28.8566 21.8867 28.6699 22 28.3966 22C28.2899 22 28.1832 21.99 28.0766 21.97C27.9699 21.95 27.8532 21.93 27.7266 21.91C27.6066 21.89 27.4699 21.87 27.3166 21.85C27.1699 21.83 26.9999 21.82 26.8066 21.82C26.4466 21.82 26.1999 21.8733 26.0666 21.98C25.9399 22.0867 25.8766 22.2 25.8766 22.32C25.8766 22.4467 25.9332 22.55 26.0466 22.63C26.1599 22.71 26.3666 22.7867 26.6666 22.86L27.5066 23.08C28.7732 23.4133 29.4066 24.0667 29.4066 25.04C29.4066 25.3467 29.3566 25.6267 29.2566 25.88C29.1566 26.1333 28.9966 26.3533 28.7766 26.54C28.5632 26.72 28.2866 26.86 27.9466 26.96C27.6132 27.06 27.2099 27.11 26.7366 27.11ZM21.71 27.12C21.2367 27.12 20.8 27.0367 20.4 26.87C20 26.6967 19.6533 26.46 19.36 26.16C19.0667 25.86 18.8367 25.5033 18.67 25.09C18.5033 24.6767 18.42 24.23 18.42 23.75C18.42 23.2833 18.5033 22.8467 18.67 22.44C18.8367 22.0333 19.0667 21.68 19.36 21.38C19.6533 21.08 20 20.8467 20.4 20.68C20.8 20.5067 21.2367 20.42 21.71 20.42C22.05 20.42 22.38 20.4567 22.7 20.53C23.02 20.6033 23.3167 20.6967 23.59 20.81C23.65 21.6967 23.4333 22.14 22.94 22.14C22.8533 22.14 22.7733 22.13 22.7 22.11C22.6267 22.09 22.5467 22.07 22.46 22.05C22.3733 22.03 22.2767 22.01 22.17 21.99C22.0633 21.97 21.9367 21.96 21.79 21.96C21.5567 21.96 21.3367 22.0033 21.13 22.09C20.9233 22.17 20.7433 22.29 20.59 22.45C20.4433 22.6033 20.3267 22.79 20.24 23.01C20.1533 23.23 20.11 23.4767 20.11 23.75C20.11 24.0367 20.1533 24.2933 20.24 24.52C20.3267 24.7467 20.4433 24.94 20.59 25.1C20.7433 25.2533 20.9233 25.3733 21.13 25.46C21.3367 25.54 21.5567 25.58 21.79 25.58C21.9367 25.58 22.0667 25.57 22.18 25.55C22.2933 25.53 22.3933 25.51 22.48 25.49C22.5733 25.47 22.66 25.45 22.74 25.43C22.82 25.41 22.9033 25.4 22.99 25.4C23.4767 25.4 23.6933 25.8433 23.64 26.73C23.3667 26.8433 23.06 26.9367 22.72 27.01C22.3867 27.0833 22.05 27.12 21.71 27.12ZM31.3483 27.02C31.7683 27.08 32.1516 27.11 32.4983 27.11C32.9716 27.11 33.375 27.06 33.7083 26.96C34.0483 26.86 34.325 26.72 34.5383 26.54C34.7583 26.3533 34.9183 26.1333 35.0183 25.88C35.1183 25.6267 35.1683 25.3467 35.1683 25.04C35.1683 24.0667 34.535 23.4133 33.2683 23.08L32.4283 22.86C32.1283 22.7867 31.9216 22.71 31.8083 22.63C31.695 22.55 31.6383 22.4467 31.6383 22.32C31.6383 22.2 31.7016 22.0867 31.8283 21.98C31.9616 21.8733 32.2083 21.82 32.5683 21.82C32.7616 21.82 32.9316 21.83 33.0783 21.85C33.2316 21.87 33.3683 21.89 33.4883 21.91C33.615 21.93 33.7316 21.95 33.8383 21.97C33.945 21.99 34.0516 22 34.1583 22C34.4316 22 34.6183 21.8867 34.7183 21.66C34.8183 21.4333 34.8583 21.1367 34.8383 20.77C34.445 20.6367 34.0683 20.54 33.7083 20.48C33.3483 20.42 32.995 20.39 32.6483 20.39C32.1416 20.39 31.725 20.4533 31.3983 20.58C31.0716 20.7 30.8116 20.8567 30.6183 21.05C30.425 21.2367 30.2883 21.4467 30.2083 21.68C30.135 21.9133 30.0983 22.14 30.0983 22.36C30.0983 22.5733 30.1283 22.78 30.1883 22.98C30.255 23.1733 30.3583 23.3567 30.4983 23.53C30.645 23.7033 30.835 23.86 31.0683 24C31.3083 24.14 31.6016 24.2567 31.9483 24.35L32.7083 24.55C32.955 24.6233 33.1516 24.7 33.2983 24.78C33.445 24.86 33.5183 24.9767 33.5183 25.13C33.5183 25.2967 33.4416 25.4333 33.2883 25.54C33.1416 25.64 32.905 25.69 32.5783 25.69C32.385 25.69 32.205 25.68 32.0383 25.66C31.8716 25.6333 31.715 25.6067 31.5683 25.58C31.4216 25.5533 31.285 25.53 31.1583 25.51C31.0383 25.4833 30.925 25.47 30.8183 25.47C30.5383 25.47 30.3483 25.59 30.2483 25.83C30.1483 26.0633 30.105 26.3633 30.1183 26.73C30.5183 26.8633 30.9283 26.96 31.3483 27.02Z" fill="#333333"/>
</g>
<defs>
<clipPath id="clip0_6_1352">
<rect width="40" height="30.01" fill="white"/>
</clipPath>
</defs>
</svg>
