<svg width="34" height="34" viewBox="0 0 34 34" fill="none" xmlns="http://www.w3.org/2000/svg">
<path fill-rule="evenodd" clip-rule="evenodd" d="M12.1296 5H19.1389C19.3475 5 19.548 5.07998 19.7003 5.23195L19.8367 5.35193L24.0711 9.57511L24.0631 9.58311L24.2716 9.78307C24.432 9.93504 24.5202 10.143 24.5202 10.359V17.2856H26.6134C27.9367 17.2856 29.0033 18.3494 29.0033 19.6691V26.6278C29.0033 27.9475 27.9367 29.0113 26.6134 29.0113H7.38991C6.06664 29.0113 5 27.9475 5 26.6278V19.6691C5 18.3494 6.06664 17.2776 7.38991 17.2856H9.75575V12.4066H9.77981V7.67148C9.77981 6.72766 10.0124 6.06379 10.4775 5.62388C10.9266 5.20796 11.488 5 12.1296 5ZM11.5362 6.86364C11.472 6.96762 11.3998 7.23956 11.3998 7.67148L11.4078 18.3494V18.8853V19.5252C11.4078 19.9571 11.7607 20.309 12.1938 20.309H22.1223C22.5554 20.309 22.9002 19.9651 22.9083 19.5412V17.2856V12.4066V11.5187V11.2388H22.6276H18.2327V6.89563V6.61569H17.952H12.1296C11.897 6.61569 11.7286 6.67167 11.5923 6.80765L11.5602 6.83164L11.5362 6.86364ZM26.6134 27.4036C27.0465 27.4036 27.3994 27.0517 27.3994 26.6198V19.6611C27.3994 19.2292 27.0465 18.8773 26.6134 18.8773H24.5042V19.5172H24.5122C24.5122 20.8369 23.4456 21.9007 22.1223 21.9007H12.1537C10.8384 21.9007 9.77981 20.8529 9.76377 19.5492H9.75575V18.8773H7.38991C6.95684 18.8773 6.60396 19.2292 6.60396 19.6611V26.6198C6.60396 27.0517 6.95684 27.4036 7.38991 27.4036H26.6134ZM22.9804 24.3882C23.0045 23.5804 23.6541 22.9965 24.3839 23.0045C25.1859 23.0045 25.7954 23.6444 25.7874 24.4282C25.7874 25.1801 25.1297 25.836 24.3598 25.804C23.7503 25.852 22.9564 25.2281 22.9804 24.3882Z" fill="#333333"/>
</svg>
