<svg width="34" height="34" viewBox="0 0 34 34" fill="none" xmlns="http://www.w3.org/2000/svg">
<path fill-rule="evenodd" clip-rule="evenodd" d="M4.09997 2.7C4.49997 2.1 5.29997 2.1 5.69997 2.7L8.09997 6.9C8.49997 7.5 7.99997 8.3 7.29997 8.3H5.89997V16.4C6.69997 16.2 7.49997 16.1 8.29997 16.1C14.1 16.1 18.8 20.7 18.8 26.3C18.8 26.9 18.7 27.5 18.6 28.1H25.7V26.6C25.7 25.9 26.5 25.4 27.1 25.8L31.3 28.2C31.9 28.6 31.9 29.4 31.3 29.8L27.1 32.2C26.5 32.6 25.7 32.1 25.7 31.4V30H3.99997V8.2H2.49997C1.79997 8.2 1.29997 7.4 1.69997 6.8L4.09997 2.7ZM5.89997 28.1V18.3C6.69997 18.1 7.49997 18 8.29997 18C13.1 18 17 21.8 17 26.4C17 27 16.9 27.6 16.8 28.2H5.89997V28.1ZM9.59997 25.3C10.1 25.3 10.5 24.9 10.5 24.4C10.5 23.9 10.1 23.5 9.59997 23.5C9.09997 23.5 8.69997 23.9 8.69997 24.4C8.69997 24.9 9.09997 25.3 9.59997 25.3Z" fill="#333333"/>
</svg>
