<svg width="34" height="34" viewBox="0 0 34 34" fill="none" xmlns="http://www.w3.org/2000/svg">
<path d="M20.24 17.38C20.28 17.2467 20.3 17.1067 20.3 16.96C20.3 16.7333 20.2533 16.5533 20.16 16.42C20.08 16.2867 19.9533 16.22 19.78 16.22H7.7C7.66 16.3667 7.64 16.5067 7.64 16.64C7.64 16.8667 7.68 17.0467 7.76 17.18C7.85334 17.3133 7.98667 17.38 8.16 17.38H20.24ZM13.72 20.28C13.76 20.1467 13.78 20.0067 13.78 19.86C13.78 19.6333 13.7333 19.4533 13.64 19.32C13.56 19.1867 13.4333 19.12 13.26 19.12H9C8.96 19.2667 8.94 19.4067 8.94 19.54C8.94 19.7667 8.98001 19.9467 9.06001 20.08C9.15334 20.2133 9.28667 20.28 9.46 20.28H13.72ZM25.56 20.28C25.6 20.1467 25.62 20.0067 25.62 19.86C25.62 19.6333 25.5733 19.4533 25.48 19.32C25.4 19.1867 25.2733 19.12 25.1 19.12H15.66C15.62 19.2667 15.6 19.4067 15.6 19.54C15.6 19.7667 15.64 19.9467 15.72 20.08C15.8133 20.2133 15.9467 20.28 16.12 20.28H25.56ZM26.88 17.38C26.92 17.2467 26.94 17.1067 26.94 16.96C26.94 16.7333 26.8933 16.5533 26.8 16.42C26.72 16.2867 26.5933 16.22 26.42 16.22H22.14C22.1 16.3667 22.08 16.5067 22.08 16.64C22.08 16.8667 22.12 17.0467 22.2 17.18C22.2933 17.3133 22.4267 17.38 22.6 17.38H26.88ZM25.28 28.24C25.1333 28.24 24.9867 28.2133 24.84 28.16C24.6933 28.12 24.5267 28.0467 24.34 27.94L16.62 23.52H6.74001C6.26001 23.52 5.84667 23.3467 5.5 23C5.16667 22.6667 5 22.2533 5 21.76V7.76C5 7.26667 5.16667 6.85334 5.5 6.52C5.84667 6.17334 6.26001 6 6.74001 6H27.8C28.28 6 28.6867 6.17334 29.02 6.52C29.3667 6.85334 29.54 7.26667 29.54 7.76V21.76C29.54 22.2533 29.3667 22.6667 29.02 23C28.6867 23.3467 28.28 23.52 27.8 23.52H25.9V27.56C25.9 28.0133 25.6933 28.24 25.28 28.24Z" fill="#333333"/>
</svg>
