<svg width="34" height="34" viewBox="0 0 34 34" fill="none" xmlns="http://www.w3.org/2000/svg">
<g clip-path="url(#clip0_6_1374)">
<path d="M16.84 2.99001C24.56 2.99001 30.84 9.27001 30.84 16.99C30.84 24.71 24.56 30.99 16.84 30.99C9.11997 30.99 2.83997 24.71 2.83997 16.99C2.83997 9.27001 9.11997 2.99001 16.84 2.99001ZM16.84 0.990005C7.99997 0.990005 0.839966 8.15001 0.839966 16.99C0.839966 25.83 7.99997 32.99 16.84 32.99C25.68 32.99 32.84 25.83 32.84 16.99C32.84 8.15001 25.68 0.990005 16.84 0.990005Z" fill="#333333"/>
<path d="M25.65 14.23C25.64 14.43 25.56 14.6 25.4 14.76L25.28 14.89L17.36 22.81C17.17 23 16.92 23.1 16.65 23.1C16.38 23.1 16.13 23 15.94 22.81L8.32001 15.19L8.14002 15C7.98002 14.84 7.90001 14.67 7.89001 14.47L7.64001 14.46C7.64001 14.46 7.64001 14.46 7.64001 14.45H7.90001C7.90001 14.35 7.96001 14.12 8.34001 13.73C8.53001 13.54 8.73002 13.36 8.93002 13.19C8.98002 13.15 9.03001 13.11 9.07001 13.08L9.55001 13.56L16.3 20.31L16.65 20.66L17 20.31L23.98 13.33L24.48 12.83C24.52 12.86 24.57 12.9 24.62 12.94C24.82 13.11 25.02 13.29 25.21 13.48C25.59 13.89 25.65 14.12 25.65 14.23Z" fill="#333333"/>
</g>
<defs>
<clipPath id="clip0_6_1374">
<rect width="34" height="34" fill="white"/>
</clipPath>
</defs>
</svg>
