<svg width="46" height="31" viewBox="0 0 46 31" fill="none" xmlns="http://www.w3.org/2000/svg">
<g clip-path="url(#clip0_6_1353)">
<path fill-rule="evenodd" clip-rule="evenodd" d="M21.85 4.95C22.06 5.15 22.17 5.4 22.17 5.68V16.0235H20.15V7.98H20.16V7.89H14.25V2.02H2.59C2.4 2.02 2.27 2.06 2.15 2.17L2.13 2.19C2.09 2.25 2.02 2.48 2.02 2.92V27.08C2.02 27.5 2.09 27.75 2.16 27.85C2.27 27.95 2.4 27.99 2.59 27.99H12.1061V30.01H2.59C1.88 30.01 1.27 29.78 0.78 29.32C0.25 28.84 0 28.11 0 27.09V2.92C0 1.9 0.25 1.17 0.78 0.69C1.27 0.23 1.88 0 2.59 0H16.47C16.72 0 16.97 0.1 17.16 0.28L17.23 0.33L21.85 4.95ZM44 19H16C15.4477 19 15 19.4477 15 20V28C15 28.5523 15.4477 29 16 29H44C44.5523 29 45 28.5523 45 28V20C45 19.4477 44.5523 19 44 19ZM16 18C14.8954 18 14 18.8954 14 20V28C14 29.1046 14.8954 30 16 30H44C45.1046 30 46 29.1046 46 28V20C46 18.8954 45.1046 18 44 18H16ZM19.61 27.02C20.03 27.08 20.4133 27.11 20.76 27.11C21.2333 27.11 21.6367 27.06 21.97 26.96C22.31 26.86 22.5867 26.72 22.8 26.54C23.02 26.3533 23.18 26.1333 23.28 25.88C23.38 25.6267 23.43 25.3467 23.43 25.04C23.43 24.0667 22.7967 23.4133 21.53 23.08L20.69 22.86C20.39 22.7867 20.1833 22.71 20.07 22.63C19.9567 22.55 19.9 22.4467 19.9 22.32C19.9 22.2 19.9633 22.0867 20.09 21.98C20.2233 21.8733 20.47 21.82 20.83 21.82C21.0233 21.82 21.1933 21.83 21.34 21.85C21.4933 21.87 21.63 21.89 21.75 21.91C21.8767 21.93 21.9933 21.95 22.1 21.97C22.2067 21.99 22.3133 22 22.42 22C22.6933 22 22.88 21.8867 22.98 21.66C23.08 21.4333 23.12 21.1367 23.1 20.77C22.7067 20.6367 22.33 20.54 21.97 20.48C21.61 20.42 21.2567 20.39 20.91 20.39C20.4033 20.39 19.9867 20.4533 19.66 20.58C19.3333 20.7 19.0733 20.8567 18.88 21.05C18.6867 21.2367 18.55 21.4467 18.47 21.68C18.3967 21.9133 18.36 22.14 18.36 22.36C18.36 22.5733 18.39 22.78 18.45 22.98C18.5167 23.1733 18.62 23.3567 18.76 23.53C18.9067 23.7033 19.0967 23.86 19.33 24C19.57 24.14 19.8633 24.2567 20.21 24.35L20.97 24.55C21.2167 24.6233 21.4133 24.7 21.56 24.78C21.7067 24.86 21.78 24.9767 21.78 25.13C21.78 25.2967 21.7033 25.4333 21.55 25.54C21.4033 25.64 21.1667 25.69 20.84 25.69C20.6467 25.69 20.4667 25.68 20.3 25.66C20.1333 25.6333 19.9767 25.6067 19.83 25.58C19.6833 25.5533 19.5467 25.53 19.42 25.51C19.3 25.4833 19.1867 25.47 19.08 25.47C18.8 25.47 18.61 25.59 18.51 25.83C18.41 26.0633 18.3667 26.3633 18.38 26.73C18.78 26.8633 19.19 26.96 19.61 27.02ZM24.2917 27.02C24.4584 27.0467 24.605 27.06 24.7317 27.06C24.925 27.06 25.1084 27.03 25.2817 26.97C25.455 26.91 25.5784 26.7633 25.6517 26.53L25.9417 25.56H28.1217L28.4617 26.59C28.535 26.79 28.6517 26.92 28.8117 26.98C28.9784 27.0333 29.1484 27.06 29.3217 27.06C29.475 27.06 29.6317 27.0467 29.7917 27.02C29.9517 27 30.0884 26.9667 30.2017 26.92L28.4217 21.31C28.375 21.1633 28.315 21.0367 28.2417 20.93C28.175 20.8167 28.0884 20.7267 27.9817 20.66C27.875 20.5933 27.7417 20.5433 27.5817 20.51C27.4284 20.4767 27.2417 20.46 27.0217 20.46C26.8684 20.46 26.6984 20.47 26.5117 20.49C26.3317 20.51 26.1517 20.5433 25.9717 20.59L23.8917 26.93C23.9984 26.97 24.1317 27 24.2917 27.02ZM27.7817 24.31H26.2917L27.0417 21.86L27.7817 24.31ZM33.094 27.11C32.7473 27.11 32.364 27.08 31.944 27.02C31.524 26.96 31.114 26.8633 30.714 26.73C30.7006 26.3633 30.744 26.0633 30.844 25.83C30.944 25.59 31.134 25.47 31.414 25.47C31.5206 25.47 31.634 25.4833 31.754 25.51C31.8806 25.53 32.0173 25.5533 32.164 25.58C32.3106 25.6067 32.4673 25.6333 32.634 25.66C32.8006 25.68 32.9806 25.69 33.174 25.69C33.5006 25.69 33.7373 25.64 33.884 25.54C34.0373 25.4333 34.114 25.2967 34.114 25.13C34.114 24.9767 34.0406 24.86 33.894 24.78C33.7473 24.7 33.5506 24.6233 33.304 24.55L32.544 24.35C32.1973 24.2567 31.904 24.14 31.664 24C31.4306 23.86 31.2406 23.7033 31.094 23.53C30.954 23.3567 30.8506 23.1733 30.784 22.98C30.724 22.78 30.694 22.5733 30.694 22.36C30.694 22.14 30.7306 21.9133 30.804 21.68C30.884 21.4467 31.0206 21.2367 31.214 21.05C31.4073 20.8567 31.6673 20.7 31.994 20.58C32.3206 20.4533 32.7373 20.39 33.244 20.39C33.5906 20.39 33.944 20.42 34.304 20.48C34.664 20.54 35.0406 20.6367 35.434 20.77C35.454 21.1367 35.414 21.4333 35.314 21.66C35.214 21.8867 35.0273 22 34.754 22C34.6473 22 34.5406 21.99 34.434 21.97C34.3273 21.95 34.2106 21.93 34.084 21.91C33.964 21.89 33.8273 21.87 33.674 21.85C33.5273 21.83 33.3573 21.82 33.164 21.82C32.804 21.82 32.5573 21.8733 32.424 21.98C32.2973 22.0867 32.234 22.2 32.234 22.32C32.234 22.4467 32.2906 22.55 32.404 22.63C32.5173 22.71 32.724 22.7867 33.024 22.86L33.864 23.08C35.1306 23.4133 35.764 24.0667 35.764 25.04C35.764 25.3467 35.714 25.6267 35.614 25.88C35.514 26.1333 35.354 26.3533 35.134 26.54C34.9206 26.72 34.644 26.86 34.304 26.96C33.9706 27.06 33.5673 27.11 33.094 27.11ZM37.7057 27.02C38.1257 27.08 38.509 27.11 38.8557 27.11C39.329 27.11 39.7324 27.06 40.0657 26.96C40.4057 26.86 40.6824 26.72 40.8957 26.54C41.1157 26.3533 41.2757 26.1333 41.3757 25.88C41.4757 25.6267 41.5257 25.3467 41.5257 25.04C41.5257 24.0667 40.8924 23.4133 39.6257 23.08L38.7857 22.86C38.4857 22.7867 38.279 22.71 38.1657 22.63C38.0524 22.55 37.9957 22.4467 37.9957 22.32C37.9957 22.2 38.059 22.0867 38.1857 21.98C38.319 21.8733 38.5657 21.82 38.9257 21.82C39.119 21.82 39.289 21.83 39.4357 21.85C39.589 21.87 39.7257 21.89 39.8457 21.91C39.9724 21.93 40.089 21.95 40.1957 21.97C40.3024 21.99 40.409 22 40.5157 22C40.789 22 40.9757 21.8867 41.0757 21.66C41.1757 21.4333 41.2157 21.1367 41.1957 20.77C40.8024 20.6367 40.4257 20.54 40.0657 20.48C39.7057 20.42 39.3524 20.39 39.0057 20.39C38.499 20.39 38.0824 20.4533 37.7557 20.58C37.429 20.7 37.169 20.8567 36.9757 21.05C36.7824 21.2367 36.6457 21.4467 36.5657 21.68C36.4924 21.9133 36.4557 22.14 36.4557 22.36C36.4557 22.5733 36.4857 22.78 36.5457 22.98C36.6124 23.1733 36.7157 23.3567 36.8557 23.53C37.0024 23.7033 37.1924 23.86 37.4257 24C37.6657 24.14 37.959 24.2567 38.3057 24.35L39.0657 24.55C39.3124 24.6233 39.509 24.7 39.6557 24.78C39.8024 24.86 39.8757 24.9767 39.8757 25.13C39.8757 25.2967 39.799 25.4333 39.6457 25.54C39.499 25.64 39.2624 25.69 38.9357 25.69C38.7424 25.69 38.5624 25.68 38.3957 25.66C38.229 25.6333 38.0724 25.6067 37.9257 25.58C37.779 25.5533 37.6424 25.53 37.5157 25.51C37.3957 25.4833 37.2824 25.47 37.1757 25.47C36.8957 25.47 36.7057 25.59 36.6057 25.83C36.5057 26.0633 36.4624 26.3633 36.4757 26.73C36.8757 26.8633 37.2857 26.96 37.7057 27.02Z" fill="#333333"/>
</g>
<defs>
<clipPath id="clip0_6_1353">
<rect width="46" height="30.01" fill="white"/>
</clipPath>
</defs>
</svg>
