<svg width="34" height="34" viewBox="0 0 34 34" fill="none" xmlns="http://www.w3.org/2000/svg">
<path d="M28.42 22.18C28.41 21.98 28.33 21.82 28.17 21.65L27.98 21.46L17.92 11.4C17.73 11.21 17.48 11.11 17.21 11.11C16.94 11.11 16.69 11.21 16.5 11.4L6.36995 21.53L6.24995 21.66C6.07995 21.82 6.00995 21.99 5.99995 22.19C5.98995 22.36 6.14995 22.63 6.43995 22.91C6.62995 23.1 6.82995 23.28 7.02995 23.45C7.07995 23.49 7.12995 23.53 7.16995 23.56L7.66995 23.06L16.86 13.87L17.21 13.52L17.56 13.87L26.76 23.07L27.24 23.55C27.28 23.52 27.33 23.48 27.38 23.44C27.58 23.27 27.78 23.09 27.97 22.9C28.26 22.62 28.42 22.35 28.42 22.18Z" fill="#333333"/>
</svg>
