<svg width="34" height="34" viewBox="0 0 34 34" fill="none" xmlns="http://www.w3.org/2000/svg">
<g clip-path="url(#clip0_860_1940)">
<path fill-rule="evenodd" clip-rule="evenodd" d="M30 2H4C2.89543 2 2 2.89543 2 4V30C2 31.1046 2.89543 32 4 32H30C31.1046 32 32 31.1046 32 30V4C32 2.89543 31.1046 2 30 2ZM4 0C1.79086 0 0 1.79086 0 4V30C0 32.2091 1.79086 34 4 34H30C32.2091 34 34 32.2091 34 30V4C34 1.79086 32.2091 0 30 0H4ZM13.9664 10.9833C13.3337 11.6117 12.4622 12 11.5 12C9.567 12 8 10.433 8 8.5C8 6.567 9.567 5 11.5 5C13.433 5 15 6.567 15 8.5C15 8.74863 14.9741 8.9912 14.9248 9.22516L22.3343 13.7503C22.9301 13.2804 23.6823 13 24.5 13C26.433 13 28 14.567 28 16.5C28 18.433 26.433 20 24.5 20C23.7792 20 23.1092 19.7821 22.5525 19.4086L14.8799 24.5876C14.9582 24.8785 15 25.1844 15 25.5C15 27.433 13.433 29 11.5 29C9.567 29 8 27.433 8 25.5C8 23.567 9.567 22 11.5 22C12.3933 22 13.2084 22.3346 13.8268 22.8854L21.2736 17.8589C21.0974 17.4411 21 16.9819 21 16.5C21 16.1116 21.0633 15.7379 21.1801 15.3888L13.9664 10.9833Z" fill="#333333"/>
</g>
<defs>
<clipPath id="clip0_860_1940">
<rect width="34" height="34" fill="white"/>
</clipPath>
</defs>
</svg>
