<svg width="34" height="34" viewBox="0 0 34 34" fill="none" xmlns="http://www.w3.org/2000/svg">
<path fill-rule="evenodd" clip-rule="evenodd" d="M12.69 14.34L13.49 15.14L15.08 16.74L15.93 17.59V16.38V6.76V6.06C15.96 6.055 15.99 6.0525 16.02 6.05C16.05 6.0475 16.08 6.045 16.11 6.04C16.38 6.01 16.64 6 16.91 6C17.32 6 17.62 6.07 17.74 6.2C17.88 6.35 17.94 6.53 17.94 6.76V16.38V17.59L18.79 16.74L20.38 15.15L21.85 13.68C21.8899 13.71 21.9399 13.7499 21.9898 13.7899L21.99 13.79C22.19 13.95 22.39 14.13 22.58 14.32C22.87 14.61 23.03 14.88 23.02 15.05C23.01 15.26 22.93 15.43 22.77 15.59L22.6 15.76L21.8 16.56L17.65 20.71C17.46 20.9 17.21 21 16.94 21C16.67 21 16.42 20.9 16.23 20.71L11.28 15.76L10.61 15.09C10.64 15.05 10.6799 15.0001 10.7199 14.9501L10.72 14.95C10.88 14.75 11.06 14.55 11.25 14.36C11.64 13.98 11.87 13.92 11.98 13.92C12.19 13.93 12.36 14.01 12.52 14.17L12.69 14.34ZM30.89 19.68C30.89 19.47 30.7 19.28 30.48 19.28C30.36 19.28 30.26 19.33 30.17 19.43L30.08 19.53L30.07 19.52L28.88 20.71V22.91C28.88 24.31 27.74 25.46 26.33 25.46H7.42C6.02 25.46 4.86999 24.32 4.86999 22.91V19.47L2.87 19.46V22.89C2.87 25.4 4.91 27.44 7.42 27.44H26.34C28.85 27.44 30.89 25.4 30.89 22.89V19.88V19.68Z" fill="#333333"/>
</svg>
