<svg width="34" height="34" viewBox="0 0 34 34" fill="none" xmlns="http://www.w3.org/2000/svg">
<path d="M14.0045 28.287C11.7201 30.5714 8.00036 30.5714 5.7133 28.2843C3.4289 25.9999 3.4289 22.28 5.7133 19.9955L11.5848 14.1239C13.8692 11.8394 17.589 11.8394 19.8761 14.1265C19.9371 14.1875 19.9981 14.2512 20.0565 14.3149C20.091 14.3441 20.1228 14.3733 20.1573 14.4051C20.2502 14.498 20.3271 14.5988 20.3881 14.7076C20.3961 14.7182 20.404 14.7262 20.412 14.7368C20.4094 14.7394 20.4094 14.7394 20.4067 14.7394C20.6879 15.2701 20.6057 15.944 20.1573 16.3897C19.7063 16.8408 19.027 16.9204 18.4964 16.6312C18.4593 16.671 18.0905 16.3048 17.8968 16.1085L17.8941 16.1058C16.7002 14.9119 14.774 14.9039 13.58 16.0952L7.69789 21.9802C6.50395 23.1741 6.50395 25.1084 7.69789 26.3023L7.70055 26.305C8.89448 27.499 10.8287 27.499 12.0226 26.305L15.5646 22.7629C16.7931 23.3652 18.239 23.3864 19.4781 22.816L14.0045 28.287ZM28.2867 14.0045L22.4152 19.8761C20.1308 22.1606 16.411 22.1606 14.1239 19.8735C14.0629 19.8125 14.0019 19.7488 13.9435 19.6851C13.909 19.6559 13.8772 19.6267 13.8453 19.5949C13.7525 19.502 13.6755 19.4012 13.6145 19.2924C13.6066 19.2818 13.5986 19.2738 13.5933 19.2632C13.5933 19.2632 13.5959 19.2606 13.5986 19.2606C13.3174 18.7299 13.3996 18.056 13.848 17.6103C14.299 17.1592 14.9783 17.0796 15.5089 17.3688C15.546 17.329 15.9148 17.6978 16.1085 17.8915L16.1112 17.8942C17.3051 19.0881 19.2313 19.0987 20.4226 17.9048L26.3048 12.0225C27.4987 10.8285 27.4987 8.89428 26.3048 7.70031V7.69766C25.1108 6.50369 23.1766 6.50369 21.9827 7.69766L18.438 11.2371C17.2123 10.6375 15.7636 10.6136 14.5246 11.184L19.9955 5.71301C22.2799 3.42855 25.9996 3.42855 28.2867 5.71567C30.5711 8.00013 30.5711 11.72 28.2867 14.0045Z" fill="#333333"/>
</svg>
