<svg width="34" height="34" viewBox="0 0 34 34" fill="none" xmlns="http://www.w3.org/2000/svg">
<path d="M22.0899 20C23.5199 18.12 24.3799 15.77 24.3799 13.22C24.3799 7.03 19.3599 2 13.1599 2C6.95994 2 1.93994 7.03 1.93994 13.22C1.93994 19.42 6.95994 24.44 13.1599 24.44C15.7199 24.44 18.0799 23.57 19.9699 22.12L26.1599 28.31C27.8899 30.04 30.2399 30.62 32.0199 29.93L22.0899 20ZM3.93994 13.22C3.93994 8.14 8.07994 4 13.1599 4C18.2399 4 22.3799 8.14 22.3799 13.22C22.3799 18.3 18.2399 22.44 13.1599 22.44C8.07994 22.44 3.93994 18.3 3.93994 13.22Z" fill="#333333"/>
</svg>
