<svg width="34" height="34" viewBox="0 0 34 34" fill="none" xmlns="http://www.w3.org/2000/svg">
<path fill-rule="evenodd" clip-rule="evenodd" d="M31.04 2.62C30.68 2.26 30.23 2.04 29.84 2.04C29.7 2.04 29.5 2.07 29.35 2.22L28.61 2.96L30.9 5.25L31.64 4.51C31.99 4.16 31.81 3.39 31.24 2.82L31.04 2.62ZM27.19 4.39001L17 14.58L16.91 14.67L14.52 17.06L14.02 19.38V19.4V19.42L14 19.45C14 19.64 14.19 19.83 14.42 19.83H14.46L16.81 19.35L29.48 6.67001L27.19 4.39001ZM29.48 9.82001C29.7 9.82001 29.89 10.01 29.89 10.22V10.42V27.43C29.89 29.94 27.85 31.98 25.34 31.98H6.42C3.91 31.98 1.87 29.94 1.87 27.43V8.51001C1.87 6.00001 3.91 3.96001 6.42 3.96001H23.68C23.91 3.96001 24.09 4.14001 24.09 4.37001C24.09 4.49001 24.04 4.60001 23.94 4.68001L23.85 4.77001V4.78001L22.62 5.97001H6.42C5.01 5.97001 3.86999 7.12001 3.86999 8.52001V27.45C3.86999 28.86 5.02 30 6.42 30H25.33C26.74 30 27.88 28.85 27.88 27.45V11.25L29.07 10.06L29.08 10.07L29.17 9.97001C29.26 9.87001 29.36 9.82001 29.48 9.82001Z" fill="#333333"/>
</svg>
