<svg width="34" height="34" viewBox="0 0 34 34" fill="none" xmlns="http://www.w3.org/2000/svg">
<path d="M21.98 6.2C21.78 6.21 21.62 6.29 21.45 6.45L21.26 6.63L11.19 16.7C11 16.89 10.9 17.14 10.9 17.41C10.9 17.68 11 17.93 11.19 18.12L21.32 28.25L21.45 28.37C21.61 28.53 21.78 28.61 21.98 28.62C22.09 28.62 22.32 28.56 22.7 28.18C22.89 27.99 23.07 27.79 23.24 27.59C23.28 27.54 23.32 27.49 23.35 27.45L22.85 26.95L13.66 17.76L13.31 17.41L13.66 17.06L22.86 7.86L23.34 7.38C23.31 7.34 23.27 7.29 23.23 7.24C23.06 7.04 22.88 6.84 22.69 6.65C22.31 6.27 22.08 6.21 21.97 6.21" fill="#333333"/>
</svg>
