<svg width="44" height="31" viewBox="0 0 44 31" fill="none" xmlns="http://www.w3.org/2000/svg">
<g clip-path="url(#clip0_6_1354)">
<path fill-rule="evenodd" clip-rule="evenodd" d="M21.85 4.95C22.06 5.15 22.17 5.4 22.17 5.68V16.0235H20.15V7.98H20.16V7.89H14.25V2.02H2.59C2.4 2.02 2.27 2.06 2.15 2.17L2.13 2.19C2.09 2.25 2.02 2.48 2.02 2.92V27.08C2.02 27.5 2.09 27.75 2.16 27.85C2.27 27.95 2.4 27.99 2.59 27.99H12.1061V30.01H2.59C1.88 30.01 1.27 29.78 0.78 29.32C0.25 28.84 0 28.11 0 27.09V2.92C0 1.9 0.25 1.17 0.78 0.69C1.27 0.23 1.88 0 2.59 0H16.47C16.72 0 16.97 0.1 17.16 0.28L17.23 0.33L21.85 4.95ZM42 19H16C15.4477 19 15 19.4477 15 20V28C15 28.5523 15.4477 29 16 29H42C42.5523 29 43 28.5523 43 28V20C43 19.4477 42.5523 19 42 19ZM16 18C14.8954 18 14 18.8954 14 20V28C14 29.1046 14.8954 30 16 30H42C43.1046 30 44 29.1046 44 28V20C44 18.8954 43.1046 18 42 18H16ZM31.5803 27.11C31.2336 27.11 30.8503 27.08 30.4303 27.02C30.0103 26.96 29.6003 26.8633 29.2003 26.73C29.187 26.3633 29.2303 26.0633 29.3303 25.83C29.4303 25.59 29.6203 25.47 29.9003 25.47C30.007 25.47 30.1203 25.4833 30.2403 25.51C30.367 25.53 30.5036 25.5533 30.6503 25.58C30.797 25.6067 30.9536 25.6333 31.1203 25.66C31.287 25.68 31.467 25.69 31.6603 25.69C31.987 25.69 32.2236 25.64 32.3703 25.54C32.5237 25.4333 32.6003 25.2967 32.6003 25.13C32.6003 24.9767 32.527 24.86 32.3803 24.78C32.2337 24.7 32.037 24.6233 31.7903 24.55L31.0303 24.35C30.6836 24.2567 30.3903 24.14 30.1503 24C29.917 23.86 29.727 23.7033 29.5803 23.53C29.4403 23.3567 29.337 23.1733 29.2703 22.98C29.2103 22.78 29.1803 22.5733 29.1803 22.36C29.1803 22.14 29.217 21.9133 29.2903 21.68C29.3703 21.4467 29.507 21.2367 29.7003 21.05C29.8937 20.8567 30.1536 20.7 30.4803 20.58C30.807 20.4533 31.2236 20.39 31.7303 20.39C32.077 20.39 32.4303 20.42 32.7903 20.48C33.1503 20.54 33.527 20.6367 33.9203 20.77C33.9403 21.1367 33.9003 21.4333 33.8003 21.66C33.7003 21.8867 33.5136 22 33.2403 22C33.1336 22 33.027 21.99 32.9203 21.97C32.8136 21.95 32.697 21.93 32.5703 21.91C32.4503 21.89 32.3136 21.87 32.1603 21.85C32.0136 21.83 31.8436 21.82 31.6503 21.82C31.2903 21.82 31.0436 21.8733 30.9103 21.98C30.7836 22.0867 30.7203 22.2 30.7203 22.32C30.7203 22.4467 30.777 22.55 30.8903 22.63C31.0036 22.71 31.2103 22.7867 31.5103 22.86L32.3503 23.08C33.617 23.4133 34.2503 24.0667 34.2503 25.04C34.2503 25.3467 34.2003 25.6267 34.1003 25.88C34.0003 26.1333 33.8403 26.3533 33.6203 26.54C33.407 26.72 33.1303 26.86 32.7903 26.96C32.457 27.06 32.0536 27.11 31.5803 27.11ZM19.12 26.94C19.24 26.98 19.3933 27 19.58 27H22.52C22.7467 27 22.9233 26.9433 23.05 26.83C23.1833 26.7167 23.25 26.5033 23.25 26.19C23.25 26.05 23.24 25.9267 23.22 25.82C23.2067 25.7133 23.1933 25.62 23.18 25.54H20.31V20.55C20.2167 20.53 20.1 20.5133 19.96 20.5C19.8267 20.4867 19.69 20.48 19.55 20.48C19.2167 20.48 18.99 20.55 18.87 20.69C18.75 20.8233 18.69 20.9867 18.69 21.18V26.2C18.69 26.3133 18.7 26.42 18.72 26.52C18.7467 26.62 18.79 26.7067 18.85 26.78C18.9167 26.8467 19.0067 26.9 19.12 26.94ZM24.5009 26.94C24.6209 26.98 24.7742 27 24.9609 27H27.8309C28.0042 27 28.1475 26.9433 28.2609 26.83C28.3742 26.7167 28.4309 26.5167 28.4309 26.23C28.4309 26.1033 28.4242 25.9767 28.4109 25.85C28.3975 25.7167 28.3842 25.6133 28.3709 25.54H25.6909V24.41H27.5409C27.7009 24.41 27.8342 24.3633 27.9409 24.27C28.0475 24.17 28.1009 23.9867 28.1009 23.72C28.1009 23.5933 28.0942 23.4767 28.0809 23.37C28.0675 23.2567 28.0542 23.1667 28.0409 23.1H25.6909V21.96H27.7309C27.9042 21.96 28.0475 21.9033 28.1609 21.79C28.2742 21.67 28.3309 21.47 28.3309 21.19C28.3309 21.0567 28.3242 20.9267 28.3109 20.8C28.2975 20.6733 28.2842 20.5733 28.2709 20.5H24.9609C24.7742 20.5 24.6209 20.52 24.5009 20.56C24.3875 20.6 24.2975 20.6567 24.2309 20.73C24.1709 20.7967 24.1275 20.88 24.1009 20.98C24.0809 21.08 24.0709 21.1867 24.0709 21.3V26.2C24.0709 26.3133 24.0809 26.42 24.1009 26.52C24.1275 26.62 24.1709 26.7067 24.2309 26.78C24.2975 26.8467 24.3875 26.9 24.5009 26.94ZM36.192 27.02C36.612 27.08 36.9954 27.11 37.342 27.11C37.8154 27.11 38.2187 27.06 38.552 26.96C38.892 26.86 39.1687 26.72 39.382 26.54C39.602 26.3533 39.762 26.1333 39.862 25.88C39.962 25.6267 40.012 25.3467 40.012 25.04C40.012 24.0667 39.3787 23.4133 38.112 23.08L37.272 22.86C36.972 22.7867 36.7654 22.71 36.652 22.63C36.5387 22.55 36.482 22.4467 36.482 22.32C36.482 22.2 36.5454 22.0867 36.672 21.98C36.8054 21.8733 37.052 21.82 37.412 21.82C37.6054 21.82 37.7754 21.83 37.922 21.85C38.0754 21.87 38.212 21.89 38.332 21.91C38.4587 21.93 38.5754 21.95 38.682 21.97C38.7887 21.99 38.8954 22 39.002 22C39.2754 22 39.462 21.8867 39.562 21.66C39.662 21.4333 39.702 21.1367 39.682 20.77C39.2887 20.6367 38.912 20.54 38.552 20.48C38.192 20.42 37.8387 20.39 37.492 20.39C36.9854 20.39 36.5687 20.4533 36.242 20.58C35.9154 20.7 35.6554 20.8567 35.462 21.05C35.2687 21.2367 35.132 21.4467 35.052 21.68C34.9787 21.9133 34.942 22.14 34.942 22.36C34.942 22.5733 34.972 22.78 35.032 22.98C35.0987 23.1733 35.202 23.3567 35.342 23.53C35.4887 23.7033 35.6787 23.86 35.912 24C36.152 24.14 36.4454 24.2567 36.792 24.35L37.552 24.55C37.7987 24.6233 37.9954 24.7 38.142 24.78C38.2887 24.86 38.362 24.9767 38.362 25.13C38.362 25.2967 38.2854 25.4333 38.132 25.54C37.9854 25.64 37.7487 25.69 37.422 25.69C37.2287 25.69 37.0487 25.68 36.882 25.66C36.7154 25.6333 36.5587 25.6067 36.412 25.58C36.2654 25.5533 36.1287 25.53 36.002 25.51C35.882 25.4833 35.7687 25.47 35.662 25.47C35.382 25.47 35.192 25.59 35.092 25.83C34.992 26.0633 34.9487 26.3633 34.962 26.73C35.362 26.8633 35.772 26.96 36.192 27.02Z" fill="#333333"/>
</g>
<defs>
<clipPath id="clip0_6_1354">
<rect width="44" height="30.01" fill="white"/>
</clipPath>
</defs>
</svg>
