<svg width="34" height="34" viewBox="0 0 34 34" fill="none" xmlns="http://www.w3.org/2000/svg">
<path fill-rule="evenodd" clip-rule="evenodd" d="M24.4 28.6C24.6 28.7 24.9 28.7 25.1 28.7C25.9 28.7 26.5 28.1 26.6 27.4V24.1H27.7C28.3 24.1 29 23.9 29.4 23.4C29.9 22.9 30.2 22.3 30.2 21.6V7.6C30.2 6.9 30 6.2 29.5 5.8C29 5.3 28.4 5 27.7 5H6.6C5.9 5 5.3 5.2 4.8 5.7C4.3 6.2 4 6.8 4 7.5V21.5C4 22.2 4.2 22.8 4.7 23.3C5.2 23.8 5.8 24 6.5 24H16.3L23.8 28.3C24 28.5 24.2 28.6 24.4 28.6ZM5.8 6.8C6 6.5 6.3 6.5 6.5 6.5V6.4H27.6C27.9 6.4 28.1 6.5 28.3 6.7C28.5 6.9 28.6 7.1 28.6 7.4V21.4C28.6 21.7 28.5 21.9 28.3 22.1C28.1 22.3 27.9 22.4 27.6 22.4H25V27.1H24.9C24.9 27.1 24.8 27.1 24.6 27L16.7 22.5H6.6C6.3 22.5 6.1 22.4 5.9 22.2C5.7 22 5.6 21.8 5.6 21.5V7.5C5.6 7.2 5.6 6.9 5.8 6.8ZM20.05 16.9C20.025 16.975 20 17.05 20 17.1H7.89996C7.69996 17.1 7.59996 17 7.49996 16.9C7.39996 16.8 7.39996 16.6 7.39996 16.4C7.39996 16.35 7.42496 16.275 7.44996 16.2C7.47496 16.125 7.49996 16.05 7.49996 16H19.6C19.8 16 19.9 16.1 20 16.2C20.1 16.3 20.1 16.5 20.1 16.7C20.1 16.75 20.075 16.825 20.05 16.9ZM13.55 19.8C13.525 19.875 13.5 19.95 13.5 20H9.19996C8.99996 20 8.89996 19.9 8.79996 19.8C8.69996 19.7 8.69996 19.5 8.69996 19.3C8.69996 19.25 8.72496 19.175 8.74996 19.1C8.77496 19.025 8.79996 18.95 8.79996 18.9H13.1C13.3 18.9 13.4 19 13.5 19.1C13.6 19.2 13.6 19.4 13.6 19.6C13.6 19.65 13.575 19.725 13.55 19.8ZM25.45 19.8C25.425 19.875 25.4 19.95 25.4 20H16C15.8 20 15.7 19.9 15.6 19.8C15.5 19.7 15.5 19.5 15.5 19.3C15.5 19.25 15.525 19.175 15.55 19.1C15.575 19.025 15.6 18.95 15.6 18.9H25C25.2 18.9 25.3 19 25.4 19.1C25.5 19.2 25.5 19.4 25.5 19.6C25.5 19.65 25.475 19.725 25.45 19.8ZM26.75 16.9C26.725 16.975 26.7 17.05 26.7 17.1H22.4C22.2 17.1 22.1 17 22 16.9C21.9 16.8 21.9 16.6 21.9 16.4C21.9 16.35 21.925 16.275 21.95 16.2C21.975 16.125 22 16.05 22 16H26.3C26.5 16 26.6 16.1 26.7 16.2C26.8 16.3 26.8 16.5 26.8 16.7C26.8 16.75 26.775 16.825 26.75 16.9Z" fill="#666666"/>
</svg>
