<svg width="34" height="34" viewBox="0 0 34 34" fill="none" xmlns="http://www.w3.org/2000/svg">
<path fill-rule="evenodd" clip-rule="evenodd" d="M30.84 16.99C30.84 9.27001 24.56 2.99001 16.84 2.99001C9.11997 2.99001 2.83997 9.27001 2.83997 16.99C2.83997 24.71 9.11997 30.99 16.84 30.99C24.56 30.99 30.84 24.71 30.84 16.99ZM0.839966 16.99C0.839966 8.15001 7.99997 0.990005 16.84 0.990005C25.68 0.990005 32.84 8.15001 32.84 16.99C32.84 25.83 25.68 32.99 16.84 32.99C7.99997 32.99 0.839966 25.83 0.839966 16.99ZM12.69 17.88L13.49 18.68L15.08 20.28L15.93 21.13V19.92V10.3V9.60001C15.96 9.59501 15.99 9.59251 16.02 9.59001C16.05 9.58751 16.08 9.58501 16.11 9.58001C16.38 9.55001 16.64 9.54001 16.91 9.54001C17.32 9.54001 17.62 9.61001 17.74 9.74001C17.88 9.89001 17.94 10.07 17.94 10.3V19.92V21.13L18.79 20.28L20.38 18.69L21.85 17.22C21.8899 17.25 21.9399 17.2899 21.9899 17.3299L21.99 17.33C22.19 17.49 22.39 17.67 22.58 17.86C22.87 18.15 23.03 18.42 23.02 18.59C23.01 18.8 22.93 18.97 22.77 19.13L22.6 19.3L21.8 20.1L17.65 24.25C17.46 24.44 17.21 24.54 16.94 24.54C16.67 24.54 16.42 24.44 16.23 24.25L11.28 19.3L10.61 18.63C10.64 18.59 10.6799 18.5401 10.7199 18.4901L10.72 18.49C10.88 18.29 11.06 18.09 11.25 17.9C11.64 17.52 11.87 17.46 11.98 17.46C12.19 17.47 12.36 17.55 12.52 17.71L12.69 17.88Z" fill="#333333"/>
</svg>
