<svg width="34" height="34" viewBox="0 0 34 34" fill="none" xmlns="http://www.w3.org/2000/svg">
<path fill-rule="evenodd" clip-rule="evenodd" d="M31 17C31 24.732 24.732 31 17 31C9.26801 31 3 24.732 3 17C3 9.26801 9.26801 3 17 3C24.732 3 31 9.26801 31 17ZM33 17C33 25.8366 25.8366 33 17 33C8.16344 33 1 25.8366 1 17C1 8.16344 8.16344 1 17 1C25.8366 1 33 8.16344 33 17ZM24.6 23.26C24.76 23.43 24.84 23.6 24.85 23.8C24.85 23.98 24.69 24.24 24.4 24.52C24.21 24.71 24.01 24.89 23.81 25.06C23.76 25.1 23.71 25.14 23.67 25.17L17.35 18.85L17 18.5L16.67 18.86L10.84 24.69C10.67 24.85 10.5 24.93 10.29 24.94C10.18 24.94 9.95001 24.88 9.57001 24.5C9.38001 24.31 9.20001 24.11 9.03001 23.91C8.99001 23.86 8.95001 23.81 8.92001 23.77L15.24 17.45L15.59 17.1L15.24 16.75L9.41001 10.92C9.25001 10.75 9.17001 10.58 9.16001 10.38C9.15001 10.2 9.31001 9.94 9.60001 9.65C9.79001 9.46 9.99001 9.28 10.19 9.11C10.24 9.07 10.29 9.03 10.33 9L16.65 15.32L17 15.67L17.34 15.32L23.17 9.49C23.34 9.33 23.51 9.25 23.72 9.24C23.83 9.24 24.06 9.3 24.44 9.68C24.63 9.87 24.81 10.07 24.98 10.27C25.02 10.32 25.06 10.37 25.09 10.41L18.77 16.73L18.42 17.08L18.77 17.43L24.6 23.26Z" fill="#999999"/>
</svg>
