<svg width="34" height="34" viewBox="0 0 34 34" fill="none" xmlns="http://www.w3.org/2000/svg">
<path d="M17.04 4.6L20.04 12.14L20.5 13.29L21.73 13.39L29.71 14.06L23.56 19.57L22.68 20.36L22.94 21.51L24.79 29.62L18.11 25.35L17.03 24.66L15.95 25.35L9.26999 29.61L11.12 21.51L11.38 20.36L10.5 19.57L4.34999 14.06L12.33 13.39L13.56 13.29L14.02 12.14L17.04 4.6ZM17.04 2.04C16.33 2.04 15.72 2.5 15.42 3.27L12.19 11.4L3.79999 12.1C2.99999 12.17 2.39999 12.63 2.17999 13.34C1.95999 14.05 2.18999 14.79 2.79999 15.34L9.18999 21.06L7.23999 29.62C7.04999 30.47 7.34999 31.03 7.53999 31.29C7.84999 31.7 8.31999 31.94 8.82999 31.94C9.17999 31.94 9.52999 31.83 9.85999 31.62L17.04 27.03L24.22 31.62C24.56 31.83 24.9 31.94 25.25 31.94C25.76 31.94 26.23 31.7 26.54 31.29C26.74 31.03 27.04 30.47 26.84 29.62L24.89 21.06L31.28 15.33C31.89 14.79 32.12 14.04 31.9 13.33C31.68 12.62 31.07 12.16 30.28 12.09L21.89 11.39L18.66 3.26C18.36 2.5 17.76 2.04 17.04 2.04Z" fill="#333333"/>
</svg>
