<svg width="34" height="34" viewBox="0 0 34 34" fill="none" xmlns="http://www.w3.org/2000/svg">
<path d="M25.75 24.83C25.74 24.63 25.66 24.46 25.5 24.29L18.97 17.76L18.62 17.41L18.97 17.06L26 10.02C25.97 9.98 25.93 9.93 25.89 9.88C25.72 9.68 25.54 9.48 25.35 9.29C24.97 8.91 24.74 8.85 24.63 8.85C24.42 8.86 24.25 8.94 24.08 9.1L17.55 15.63L17.2 15.98L16.85 15.63L9.82002 8.6C9.77002 8.64 9.73003 8.67 9.68003 8.72C9.48003 8.89 9.28002 9.07 9.09002 9.26C8.80002 9.54 8.64002 9.8 8.65002 9.98C8.66002 10.18 8.74002 10.35 8.90002 10.52L15.43 17.05L15.78 17.4L15.43 17.75L8.40002 24.79C8.43002 24.83 8.47003 24.88 8.51003 24.93C8.68003 25.13 8.86002 25.33 9.05002 25.52C9.43002 25.9 9.66003 25.96 9.77003 25.96C9.98003 25.95 10.15 25.87 10.32 25.71L16.85 19.18L17.2 18.83L17.55 19.18L24.58 26.21C24.62 26.18 24.67 26.14 24.72 26.1C24.92 25.93 25.12 25.75 25.31 25.56C25.6 25.27 25.76 25 25.75 24.83Z" fill="#333333"/>
</svg>
