<svg width="34" height="34" viewBox="0 0 34 34" fill="none" xmlns="http://www.w3.org/2000/svg">
<path fill-rule="evenodd" clip-rule="evenodd" d="M21.44 8.41C21.44 5.98 19.45 3.99 17.01 3.98H16.99C15.82 3.98 14.71 4.44 13.87 5.28C13.03 6.12 12.57 7.23 12.57 8.41C12.57 10.85 14.56 12.83 17 12.83C19.45 12.83 21.44 10.85 21.44 8.41ZM10.57 8.42C10.57 4.87 13.46 1.98 16.99 1.98H17.01C20.57 2 23.43 4.88 23.43 8.42C23.43 11.95 20.54 14.84 17 14.84C13.47 14.84 10.57 11.95 10.57 8.42ZM17.01 18.82C15.38 18.82 13.8 18.33 12.43 17.41C10.54 18.09 9.21 18.95 8.25 20.12C7.37 21.18 6.98 22.1 6.98 23.08V29.13V29.98H27.02V29.91C27.03 27.53 27.03 25.31 27.02 22.94C27.02 22.75 27 22.55 26.95 22.37C26.6 21.02 25.82 19.91 24.47 18.9C23.63 18.27 22.69 17.78 21.6 17.42C20.23 18.33 18.62 18.82 17.01 18.82ZM21.04 15.37C21.12 15.31 21.24 15.27 21.34 15.27C21.3565 15.27 21.373 15.273 21.3879 15.2758C21.4 15.278 21.411 15.28 21.42 15.28C22.95 15.7 24.38 16.34 25.66 17.3C27.22 18.47 28.38 19.94 28.87 21.88C28.95 22.22 29 22.59 29 22.94C29.0066 24.9203 29.0045 26.8344 29.0022 28.7732C29.0011 29.7519 29 30.737 29 31.74C29 31.81 29 31.88 28.99 31.98H5V31.52V23.09C5 21.43 5.72 20.07 6.73 18.83C8.13 17.13 9.98 16.12 12.02 15.43C12.22 15.36 12.39 15.32 12.56 15.32C12.82 15.32 13.05 15.41 13.33 15.61C14.45 16.42 15.73 16.82 17.01 16.82C18.43 16.82 19.85 16.33 21.04 15.37Z" fill="#333333"/>
</svg>
