<svg width="34" height="34" viewBox="0 0 34 34" fill="none" xmlns="http://www.w3.org/2000/svg">
<path fill-rule="evenodd" clip-rule="evenodd" d="M7.32236 4H26.6776C28.5096 4 30 5.49043 30 7.32241V26.6776C30 28.5096 28.5096 30 26.6776 30H7.32236C5.49038 30 4 28.5096 4 26.6776V7.32241C4 5.49043 5.49038 4 7.32236 4ZM26.6776 28.4685C27.6651 28.4685 28.4685 27.6652 28.4685 26.6776L28.4686 20.6412L23.6354 14.6902C23.5144 14.5411 23.3583 14.5118 23.276 14.5076C23.1935 14.5033 23.0354 14.5165 22.8998 14.6524L15.398 22.1657C15.1182 22.4457 14.6713 22.4664 14.3669 22.2137L11.2096 19.592C11.024 19.4378 10.7556 19.4393 10.5717 19.5958L5.53141 23.8843V26.6776C5.53141 27.6651 6.33482 28.4685 7.32236 28.4685H26.6776ZM24.8242 13.7246L28.4685 18.2119V7.32241C28.4685 6.33487 27.6652 5.53146 26.6776 5.53146H7.32236C6.33482 5.53146 5.53141 6.33487 5.53141 7.32241V21.8736L9.57929 18.4295C10.3314 17.7896 11.4284 17.783 12.1881 18.4139L14.8079 20.5893L21.8161 13.5702C22.2212 13.1645 22.7823 12.9491 23.3545 12.978C23.9271 13.0074 24.4628 13.2795 24.8242 13.7246ZM8.49216 10.8914C8.49216 8.85545 10.1485 7.19896 12.1846 7.19896C14.2207 7.19896 15.8771 8.8554 15.8771 10.8914C15.8771 12.9274 14.2206 14.5839 12.1846 14.5839C10.1486 14.5839 8.49216 12.9274 8.49216 10.8914ZM10.0236 10.8914C10.0236 12.083 10.993 13.0525 12.1846 13.0525C13.3762 13.0525 14.3457 12.083 14.3457 10.8914C14.3457 9.69984 13.3762 8.73037 12.1846 8.73037C10.993 8.73037 10.0236 9.69979 10.0236 10.8914Z" fill="#333333"/>
</svg>
