<svg width="34" height="34" viewBox="0 0 34 34" fill="none" xmlns="http://www.w3.org/2000/svg">
<path fill-rule="evenodd" clip-rule="evenodd" d="M17 9.99998C18.6569 9.99998 20 8.65684 20 6.99998C20 5.34313 18.6569 3.99998 17 3.99998C15.3431 3.99998 14 5.34313 14 6.99998C14 8.65684 15.3431 9.99998 17 9.99998ZM20 17C20 18.6568 18.6569 20 17 20C15.3431 20 14 18.6568 14 17C14 15.3431 15.3431 14 17 14C18.6569 14 20 15.3431 20 17ZM20 27C20 28.6568 18.6569 30 17 30C15.3431 30 14 28.6568 14 27C14 25.3431 15.3431 24 17 24C18.6569 24 20 25.3431 20 27Z" fill="#333333"/>
</svg>
