<svg width="34" height="34" viewBox="0 0 34 34" fill="none" xmlns="http://www.w3.org/2000/svg">
<g clip-path="url(#clip0_6_1380)">
<path d="M16.84 2.99001C24.56 2.99001 30.84 9.27001 30.84 16.99C30.84 24.71 24.56 30.99 16.84 30.99C9.11997 30.99 2.83997 24.71 2.83997 16.99C2.83997 9.27001 9.11997 2.99001 16.84 2.99001ZM16.84 0.990005C7.99997 0.990005 0.839966 8.15001 0.839966 16.99C0.839966 25.83 7.99997 32.99 16.84 32.99C25.68 32.99 32.84 25.83 32.84 16.99C32.84 8.15001 25.68 0.990005 16.84 0.990005Z" fill="#333333"/>
<path d="M26.0299 19.62H25.7799C25.7799 19.72 25.7199 19.95 25.3399 20.34C25.1499 20.53 24.9499 20.71 24.7499 20.88C24.6999 20.92 24.6499 20.96 24.6099 20.99L24.1299 20.51L17.3799 13.76L17.0299 13.41L16.6799 13.76L9.69991 20.74L9.19991 21.24C9.15991 21.21 9.10991 21.17 9.05991 21.13C8.85991 20.96 8.65991 20.78 8.46991 20.59C8.08991 20.21 8.02991 19.98 8.02991 19.87C8.03991 19.67 8.11991 19.5 8.27991 19.34L8.39991 19.2L16.3199 11.28C16.5099 11.09 16.7599 10.99 17.0299 10.99C17.2999 10.99 17.5499 11.09 17.7399 11.28L25.3599 18.9L25.5399 19.09C25.6999 19.25 25.7799 19.42 25.7899 19.62H26.0299Z" fill="#333333"/>
</g>
<defs>
<clipPath id="clip0_6_1380">
<rect width="34" height="34" fill="white"/>
</clipPath>
</defs>
</svg>
