<svg width="34" height="34" viewBox="0 0 34 34" fill="none" xmlns="http://www.w3.org/2000/svg">
<path d="M31.7501 25.87C31.7301 25.69 31.7101 25.55 31.6901 25.45H30.9901H30.9401H28.8001C28.8701 25.28 28.9101 25.1 28.9101 24.9V8.9C28.9101 8.07 28.2301 7.39 27.4001 7.39H6.36009C5.53009 7.39 4.85009 8.07 4.85009 8.9V24.91C4.85009 25.1 4.89009 25.29 4.96009 25.46H2.68009H2.65009H1.93009C1.91009 25.56 1.89009 25.7 1.87009 25.88C1.85009 26.06 1.84009 26.25 1.84009 26.44C1.84009 26.82 1.92009 27.09 2.08009 27.23C2.23009 27.37 2.43009 27.44 2.65009 27.45H30.9901V27.44C31.2101 27.43 31.3901 27.36 31.5401 27.22C31.7001 27.07 31.7801 26.81 31.7801 26.43C31.7801 26.25 31.7701 26.06 31.7501 25.87ZM17.9401 26.43H15.9401V25.43H17.9401V26.43ZM26.9101 24.42H6.85009V9.39H26.9001V24.42H26.9101Z" fill="#333333"/>
</svg>
