<svg width="34" height="34" viewBox="0 0 34 34" fill="none" xmlns="http://www.w3.org/2000/svg">
<path fill-rule="evenodd" clip-rule="evenodd" d="M10.19 11.34C11.1 11.34 12.02 11.64 13 12.25C14.27 13.04 15.57 13.44 16.89 13.44C18.2 13.44 19.52 13.04 20.81 12.24C21.79 11.63 22.71 11.34 23.62 11.34C23.85 11.34 24.09 11.36 24.32 11.4C25.2 11.54 25.92 11.98 26.58 12.76C27.72 14.11 28.55 15.82 29.13 18C29.58 19.69 29.79 21.4 29.75 23.1V23.15V23.2C29.77 23.77 29.76 25.23 29.37 26.36L29.36 26.39L29.35 26.42C29.19 26.94 29.03 26.96 28.79 26.98C28.75 26.98 28.67 26.98 28.53 26.86L28.1 26.5L27.8766 26.2972C26.868 25.3821 25.9069 24.5101 25.05 23.56C23.91 22.29 22.56 21.68 20.93 21.68H20.79C19.68 21.7 18.51 21.71 17.1 21.71C16.52 21.71 15.9425 21.7075 15.365 21.705C14.7875 21.7025 14.21 21.7 13.63 21.7L12.48 21.69C11.17 21.69 10.06 22.18 9.08996 23.19C7.99996 24.32 6.78996 25.5 5.38996 26.8C5.17996 26.99 5.06996 27 5.00996 27H4.99996C4.67996 26.98 4.63996 26.9 4.58996 26.79L4.38996 26.35C3.92996 25.13 3.88996 23.43 3.91996 22.81C4.06996 19.27 4.89996 16.32 6.46996 13.78C7.39996 12.28 8.37996 11.54 9.64996 11.38C9.82996 11.35 10.01 11.34 10.19 11.34ZM10.19 9.34C9.92996 9.34 9.66996 9.36 9.39996 9.39C7.25996 9.66 5.84996 10.98 4.76996 12.73C2.87996 15.78 2.07996 19.14 1.92996 22.72C1.92996 22.72 1.76996 25.62 2.75996 27.6C3.15996 28.49 3.91996 28.94 4.88996 28.99H5.00996C5.67996 28.99 6.25996 28.7 6.72996 28.27C8.01996 27.07 9.28996 25.85 10.51 24.58C11.07 24 11.66 23.69 12.46 23.69H12.48C14.01 23.7 15.55 23.71 17.08 23.71C18.32 23.71 19.57 23.7 20.81 23.68H20.91C22.01 23.68 22.79 24.06 23.55 24.9C24.5252 25.9895 25.6162 26.9708 26.7077 27.9527C26.8586 28.0883 27.0094 28.224 27.16 28.36C27.6 28.76 28.14 29 28.76 29C28.83 29 28.9 29 28.98 28.99C30.09 28.89 30.87 28.23 31.24 27.03C31.73 25.62 31.76 23.96 31.73 23.15C31.77 21.25 31.55 19.36 31.05 17.48C30.46 15.28 29.58 13.22 28.09 11.47C27.18 10.39 26.05 9.66 24.63 9.42C24.28 9.36 23.94 9.34 23.6 9.34C22.22 9.34 20.94 9.8 19.74 10.54C18.78 11.14 17.83 11.44 16.88 11.44C15.94 11.44 15.01 11.15 14.05 10.55C12.87 9.81 11.58 9.34 10.19 9.34ZM24.2099 19.4C24.3499 19.25 24.4099 19.07 24.4099 18.84V17.6V17.1H24.9099H26.8499C26.8553 17.0729 26.8578 17.0429 26.8605 17.01C26.8628 16.9821 26.8653 16.9521 26.8699 16.92C26.8999 16.66 26.9099 16.39 26.9099 16.12C26.9099 15.58 26.7899 15.37 26.7199 15.3C26.5599 15.16 26.3899 15.09 26.1499 15.09H24.9099H24.4099V14.59V12.65C24.3828 12.6446 24.3528 12.6421 24.3199 12.6394C24.292 12.6371 24.262 12.6346 24.2299 12.63C23.9699 12.61 23.6999 12.59 23.4399 12.59C23.0299 12.59 22.7299 12.66 22.6099 12.79C22.4699 12.94 22.4099 13.12 22.4099 13.35V14.59V15.09H21.9099H19.9699C19.9645 15.1171 19.962 15.147 19.9593 15.1799L19.9593 15.18C19.957 15.2079 19.9545 15.2379 19.9499 15.27C19.9299 15.53 19.9099 15.8 19.9099 16.06C19.9099 16.6 20.0299 16.81 20.0999 16.88C20.2599 17.02 20.4299 17.09 20.6699 17.09H21.9099H22.4099V17.59V19.53C22.437 19.5354 22.467 19.5379 22.4999 19.5406H22.4999C22.5278 19.5429 22.5578 19.5454 22.5899 19.55C22.8499 19.58 23.1199 19.59 23.3899 19.59C23.7899 19.6 24.0899 19.52 24.2099 19.4ZM12.7199 16.1C12.7199 17.4807 11.6006 18.6 10.2199 18.6C8.8392 18.6 7.71991 17.4807 7.71991 16.1C7.71991 14.7193 8.8392 13.6 10.2199 13.6C11.6006 13.6 12.7199 14.7193 12.7199 16.1Z" fill="#333333"/>
</svg>
