<svg width="23" height="13" viewBox="0 0 23 13" fill="none" xmlns="http://www.w3.org/2000/svg">
<g clip-path="url(#clip0_6_1480)">
<path d="M22.4204 11.07C22.4104 10.87 22.3304 10.71 22.1704 10.54L21.9804 10.35L11.9204 0.29C11.7304 0.1 11.4804 0 11.2104 0C10.9404 0 10.6904 0.1 10.5004 0.29L0.370442 10.42L0.250442 10.55C0.0804422 10.71 0.0104422 10.88 0.000442199 11.08C-0.0095578 11.25 0.150442 11.52 0.440442 11.8C0.630442 11.99 0.830442 12.17 1.03044 12.34C1.08044 12.38 1.13044 12.42 1.17044 12.45L1.67044 11.95L10.8604 2.76L11.2104 2.41L11.5604 2.76L20.7604 11.96L21.2404 12.44C21.2804 12.41 21.3304 12.37 21.3804 12.33C21.5804 12.16 21.7804 11.98 21.9704 11.79C22.2604 11.51 22.4204 11.24 22.4204 11.07Z" fill="#333333"/>
</g>
<defs>
<clipPath id="clip0_6_1480">
<rect width="22.4204" height="12.45" fill="white"/>
</clipPath>
</defs>
</svg>
