<svg width="46" height="31" viewBox="0 0 46 31" fill="none" xmlns="http://www.w3.org/2000/svg">
<g clip-path="url(#clip0_6_1351)">
<path fill-rule="evenodd" clip-rule="evenodd" d="M21.85 4.95C22.06 5.15 22.17 5.4 22.17 5.68V16.0235H20.15V7.98H20.16V7.89H14.25V2.02H2.59C2.4 2.02 2.27 2.06 2.15 2.17L2.13 2.19C2.09 2.25 2.02 2.48 2.02 2.92V27.08C2.02 27.5 2.09 27.75 2.16 27.85C2.27 27.95 2.4 27.99 2.59 27.99H12.1061V30.01H2.59C1.88 30.01 1.27 29.78 0.78 29.32C0.25 28.84 0 28.11 0 27.09V2.92C0 1.9 0.25 1.17 0.78 0.69C1.27 0.23 1.88 0 2.59 0H16.47C16.72 0 16.97 0.1 17.16 0.28L17.23 0.33L21.85 4.95ZM44 19H16C15.4477 19 15 19.4477 15 20V28C15 28.5523 15.4477 29 16 29H44C44.5523 29 45 28.5523 45 28V20C45 19.4477 44.5523 19 44 19ZM16 18C14.8954 18 14 18.8954 14 20V28C14 29.1046 14.8954 30 16 30H44C45.1046 30 46 29.1046 46 28V20C46 18.8954 45.1046 18 44 18H16ZM31.4917 27.14C30.9917 27.14 30.5384 27.05 30.1317 26.87C29.7251 26.69 29.3751 26.4467 29.0817 26.14C28.7951 25.8333 28.5717 25.4733 28.4117 25.06C28.2584 24.6467 28.1817 24.2033 28.1817 23.73C28.1817 23.2633 28.2584 22.8267 28.4117 22.42C28.5717 22.0067 28.7951 21.65 29.0817 21.35C29.3751 21.0433 29.7251 20.8033 30.1317 20.63C30.5384 20.4567 30.9917 20.37 31.4917 20.37C31.9917 20.37 32.4451 20.4567 32.8517 20.63C33.2584 20.8033 33.6051 21.0433 33.8917 21.35C34.1851 21.65 34.4084 22.0067 34.5617 22.42C34.7217 22.8267 34.8017 23.2633 34.8017 23.73C34.8017 24.2033 34.7217 24.6467 34.5617 25.06C34.4084 25.4733 34.1851 25.8333 33.8917 26.14C33.6051 26.4467 33.2584 26.69 32.8517 26.87C32.4451 27.05 31.9917 27.14 31.4917 27.14ZM31.4817 25.7C31.7084 25.7 31.9217 25.65 32.1217 25.55C32.3217 25.45 32.4951 25.3133 32.6417 25.14C32.7951 24.96 32.9117 24.7533 32.9917 24.52C33.0784 24.28 33.1217 24.0233 33.1217 23.75C33.1217 23.4767 33.0817 23.2233 33.0017 22.99C32.9217 22.75 32.8084 22.5433 32.6617 22.37C32.5217 22.1967 32.3517 22.06 32.1517 21.96C31.9517 21.86 31.7317 21.81 31.4917 21.81C31.2584 21.81 31.0417 21.86 30.8417 21.96C30.6484 22.0533 30.4784 22.1867 30.3317 22.36C30.1851 22.5333 30.0684 22.74 29.9817 22.98C29.9017 23.2133 29.8617 23.4667 29.8617 23.74C29.8617 24.02 29.9017 24.28 29.9817 24.52C30.0684 24.76 30.1817 24.97 30.3217 25.15C30.4684 25.3233 30.6384 25.46 30.8317 25.56C31.0317 25.6533 31.2484 25.7 31.4817 25.7ZM23.61 27.02C24.03 27.08 24.4133 27.11 24.76 27.11C25.2333 27.11 25.6367 27.06 25.97 26.96C26.31 26.86 26.5867 26.72 26.8 26.54C27.02 26.3533 27.18 26.1333 27.28 25.88C27.38 25.6267 27.43 25.3467 27.43 25.04C27.43 24.0667 26.7967 23.4133 25.53 23.08L24.69 22.86C24.39 22.7867 24.1833 22.71 24.07 22.63C23.9567 22.55 23.9 22.4467 23.9 22.32C23.9 22.2 23.9633 22.0867 24.09 21.98C24.2233 21.8733 24.47 21.82 24.83 21.82C25.0233 21.82 25.1933 21.83 25.34 21.85C25.4933 21.87 25.63 21.89 25.75 21.91C25.8767 21.93 25.9933 21.95 26.1 21.97C26.2067 21.99 26.3133 22 26.42 22C26.6933 22 26.88 21.8867 26.98 21.66C27.08 21.4333 27.12 21.1367 27.1 20.77C26.7067 20.6367 26.33 20.54 25.97 20.48C25.61 20.42 25.2567 20.39 24.91 20.39C24.4033 20.39 23.9867 20.4533 23.66 20.58C23.3333 20.7 23.0733 20.8567 22.88 21.05C22.6867 21.2367 22.55 21.4467 22.47 21.68C22.3967 21.9133 22.36 22.14 22.36 22.36C22.36 22.5733 22.39 22.78 22.45 22.98C22.5167 23.1733 22.62 23.3567 22.76 23.53C22.9067 23.7033 23.0967 23.86 23.33 24C23.57 24.14 23.8633 24.2567 24.21 24.35L24.97 24.55C25.2167 24.6233 25.4133 24.7 25.56 24.78C25.7067 24.86 25.78 24.9767 25.78 25.13C25.78 25.2967 25.7033 25.4333 25.55 25.54C25.4033 25.64 25.1667 25.69 24.84 25.69C24.6467 25.69 24.4667 25.68 24.3 25.66C24.1333 25.6333 23.9767 25.6067 23.83 25.58C23.6833 25.5533 23.5467 25.53 23.42 25.51C23.3 25.4833 23.1867 25.47 23.08 25.47C22.8 25.47 22.61 25.59 22.51 25.83C22.41 26.0633 22.3667 26.3633 22.38 26.73C22.78 26.8633 23.19 26.96 23.61 27.02ZM18.08 26.92C18.42 27.0267 18.7767 27.08 19.15 27.08C19.8367 27.08 20.3733 26.9033 20.76 26.55C21.1467 26.1967 21.34 25.6867 21.34 25.02V20.55C21.2467 20.53 21.13 20.5133 20.99 20.5C20.8567 20.4867 20.72 20.48 20.58 20.48C20.2467 20.48 20.02 20.55 19.9 20.69C19.78 20.8233 19.72 20.9867 19.72 21.18V24.86C19.72 25.1267 19.65 25.32 19.51 25.44C19.3767 25.5533 19.2033 25.61 18.99 25.61C18.85 25.61 18.73 25.5933 18.63 25.56C18.53 25.5267 18.4333 25.4933 18.34 25.46C18.2533 25.42 18.1667 25.3833 18.08 25.35C18 25.3167 17.91 25.3 17.81 25.3C17.5767 25.3 17.4 25.3933 17.28 25.58C17.1667 25.76 17.1267 26.0667 17.16 26.5C17.44 26.6667 17.7467 26.8067 18.08 26.92ZM36.2327 27.02C36.3593 27.0333 36.4893 27.04 36.6227 27.04C36.936 27.04 37.1493 26.9767 37.2627 26.85C37.376 26.7233 37.4327 26.5667 37.4327 26.38V22.67L39.8627 26.55C39.9627 26.7033 40.0893 26.8233 40.2427 26.91C40.396 26.9967 40.6293 27.04 40.9427 27.04C41.0693 27.04 41.1993 27.03 41.3327 27.01C41.466 26.9967 41.5793 26.9667 41.6727 26.92V20.54C41.586 20.5267 41.4793 20.5133 41.3527 20.5C41.2327 20.4867 41.106 20.48 40.9727 20.48C40.8193 20.48 40.6927 20.4967 40.5927 20.53C40.4927 20.5633 40.4127 20.61 40.3527 20.67C40.2993 20.73 40.2593 20.8 40.2327 20.88C40.2127 20.9533 40.2027 21.0333 40.2027 21.12V24.6L37.9327 21.03C37.8193 20.85 37.6793 20.7133 37.5127 20.62C37.346 20.5267 37.0793 20.48 36.7127 20.48C36.5993 20.48 36.4627 20.4933 36.3027 20.52C36.1427 20.54 36.0127 20.5667 35.9127 20.6V26.97C35.9993 26.99 36.106 27.0067 36.2327 27.02Z" fill="#333333"/>
</g>
<defs>
<clipPath id="clip0_6_1351">
<rect width="46" height="30.01" fill="white"/>
</clipPath>
</defs>
</svg>
